STARTFONT 2.1
COMMENT
COMMENT Converted from OpenType font "Q:\font stuff\winfont\GosmickSans.ttf" by "otf2bdf 3.0".
COMMENT
FONT -FreeType-GosmickSans-Medium-R-Normal--50-500-72-72-P-216-ISO10646-1
SIZE 50 72 72
FONTBOUNDINGBOX 61 62 -7 -14
STARTPROPERTIES 19
FOUNDRY "FreeType"
FAMILY_NAME "GosmickSans"
WEIGHT_NAME "Medium"
SLANT "R"
SETWIDTH_NAME "Normal"
ADD_STYLE_NAME ""
PIXEL_SIZE 38
POINT_SIZE 500
RESOLUTION_X 72
RESOLUTION_Y 72
SPACING "P"
AVERAGE_WIDTH 216
CHARSET_REGISTRY "ISO10646"
CHARSET_ENCODING "1"
FONT_ASCENT 48
FONT_DESCENT 10
COPYRIGHT "Copyright (c) Graham Meade, 2003. All rights reserved."
_OTF_FONTFILE "Q:\font stuff\winfont\GosmickSans.ttf"
_OTF_PSNAME "GosmickSans"
ENDPROPERTIES
CHARS 220
STARTCHAR 0008
ENCODING 8
SWIDTH 320 0
DWIDTH 16 0
BBX 12 11 2 25
BITMAP
0F80
3FC0
7FE0
F0F0
E070
E070
E070
E070
F0E0
7FC0
3F80
ENDCHAR
STARTCHAR 001A
ENCODING 26
SWIDTH 460 0
DWIDTH 23 0
BBX 0 0 0 0
BITMAP
ENDCHAR
STARTCHAR 001B
ENCODING 27
SWIDTH 460 0
DWIDTH 23 0
BBX 0 0 0 0
BITMAP
ENDCHAR
STARTCHAR 0020
ENCODING 32
SWIDTH 280 0
DWIDTH 14 0
BBX 0 0 0 0
BITMAP
ENDCHAR
STARTCHAR 0021
ENCODING 33
SWIDTH 180 0
DWIDTH 9 0
BBX 6 38 2 -1
BITMAP
38
7C
FC
FC
FC
FC
F8
F8
F8
F8
F8
F8
F8
F8
F8
F8
F8
F8
F8
F8
F8
F8
F8
F8
F8
F0
00
00
00
00
00
70
F8
FC
FC
FC
78
10
ENDCHAR
STARTCHAR 0022
ENCODING 34
SWIDTH 380 0
DWIDTH 19 0
BBX 16 13 2 24
BITMAP
700C
F81E
F83F
F83F
F83F
F83F
F83E
F81E
F01E
F01E
701C
701C
6008
ENDCHAR
STARTCHAR 0023
ENCODING 35
SWIDTH 560 0
DWIDTH 28 0
BBX 24 28 2 2
BITMAP
00F060
00F0E0
00F0F0
00F0F0
01F0F0
01E0F0
01E1E0
01E1E0
1FFFFF
7FFFFF
7FFFFF
7FFFFE
03C3C0
03C3C0
03C3C0
03C3C0
3FFFFE
FFFFFE
FFFFFC
FFFFF8
078780
070780
0F0F00
0F0F00
0F0F00
0F0F00
0F0F00
0E0600
ENDCHAR
STARTCHAR 0024
ENCODING 36
SWIDTH 540 0
DWIDTH 27 0
BBX 24 37 2 0
BITMAP
003800
003800
007800
00FF80
03FFE0
0FFFF0
1FFFF0
3FF8F0
7E7870
7C7860
F87800
F87800
F87800
F87800
7C7800
7E7800
3FFE00
1FFFE0
07FFF0
007FFC
007FFE
007BFE
0078FE
00783F
00781F
00781E
00781E
E0781E
F0781E
F0783C
FC787C
7FF9F8
7FFFE0
1FFFC0
07FE00
007800
003800
ENDCHAR
STARTCHAR 0025
ENCODING 37
SWIDTH 760 0
DWIDTH 38 0
BBX 35 34 2 0
BITMAP
03E0007000
0FF801F000
3FFC03E000
3C3E03E000
781E07C000
F80F078000
F00F078000
F00F0F0000
F00F0F0000
F00F1E0000
F00F1E0000
781E3C0000
7C3C7C0000
3FFC780000
1FF0F00000
07C0F00000
0001E00000
0001E07C00
0003C1FF00
0003C7FF80
00078787C0
00078F03C0
000F0F03E0
000F1E01E0
001E1E01E0
001E1E01E0
003C1E01E0
003C1E01E0
00781F03C0
00780F03C0
00F00F8780
00F007FF00
01E003FE00
01C000F800
ENDCHAR
STARTCHAR 0026
ENCODING 38
SWIDTH 680 0
DWIDTH 34 0
BBX 33 34 2 0
BITMAP
003F000000
01FFC00000
03FFE00000
07C3E00000
0F81E00000
0F01E00000
0F01E00000
0F83E00000
0783E00000
07C7C00000
03FF800000
03FF000000
01FE000000
03F8000000
07E0000000
0FC0000000
1F00000000
3E00000000
7C0000C000
780001E000
F80003E000
F00003E000
F00007E000
F00007C000
F0000FC000
F0001FC000
F8001FE000
FC003FF000
7E00FDFC00
3F87FCFE00
3FFFF87F00
1FFFE03F80
07FFC01F80
01FE000700
ENDCHAR
STARTCHAR 0027
ENCODING 39
SWIDTH 180 0
DWIDTH 9 0
BBX 5 13 2 24
BITMAP
70
F8
F8
F8
F8
F8
F8
F8
F0
F0
70
70
60
ENDCHAR
STARTCHAR 0028
ENCODING 40
SWIDTH 320 0
DWIDTH 16 0
BBX 12 45 2 -6
BITMAP
00E0
01E0
03C0
07C0
0F80
0F80
1F00
1F00
3E00
3E00
3C00
7C00
7800
7800
7800
F800
F800
F000
F000
F000
F000
F000
F000
F000
F000
F800
F800
F800
F800
F800
7C00
7C00
7C00
7E00
3E00
3F00
1F00
1F80
0FC0
0FC0
07E0
07F0
03F0
01F0
0060
ENDCHAR
STARTCHAR 0029
ENCODING 41
SWIDTH 320 0
DWIDTH 16 0
BBX 12 45 2 -6
BITMAP
7000
7C00
3C00
3E00
1F00
1F00
0F80
0F80
07C0
07C0
03C0
03E0
01E0
01E0
01E0
01F0
01F0
00F0
00F0
00F0
00F0
00F0
00F0
00F0
00F0
00F0
01F0
01F0
01F0
01F0
01E0
03E0
03E0
07E0
07C0
0FC0
0F80
1F80
1F80
3F00
7E00
7E00
FC00
F800
2000
ENDCHAR
STARTCHAR 002A
ENCODING 42
SWIDTH 380 0
DWIDTH 19 0
BBX 16 17 2 20
BITMAP
0380
03C0
0380
6384
F39E
FBBF
FFFE
3FF8
07C0
3FF8
FFFE
FBBF
F39E
6384
0380
03C0
0380
ENDCHAR
STARTCHAR 002B
ENCODING 43
SWIDTH 520 0
DWIDTH 26 0
BBX 22 23 2 3
BITMAP
007800
007800
007800
007800
007800
007800
007800
007800
007800
7FFFFC
FFFFFC
FFFFFC
FFFFF8
007800
007800
007800
007800
007800
007800
007800
007800
007800
003000
ENDCHAR
STARTCHAR 002C
ENCODING 44
SWIDTH 200 0
DWIDTH 10 0
BBX 7 13 2 -7
BITMAP
78
FC
FC
FE
FE
7C
7C
7C
78
F8
F0
F0
E0
ENDCHAR
STARTCHAR 002D
ENCODING 45
SWIDTH 420 0
DWIDTH 21 0
BBX 17 4 2 13
BITMAP
7FFF80
FFFF80
FFFF80
FFFF00
ENDCHAR
STARTCHAR 002E
ENCODING 46
SWIDTH 200 0
DWIDTH 10 0
BBX 6 7 2 0
BITMAP
70
FC
FC
FC
FC
7C
38
ENDCHAR
STARTCHAR 002F
ENCODING 47
SWIDTH 440 0
DWIDTH 22 0
BBX 18 36 2 1
BITMAP
0001C0
0003C0
0007C0
000780
000F80
000F00
001F00
001E00
001E00
003C00
003C00
007800
007800
007800
00F000
00F000
01E000
01E000
01E000
03C000
03C000
078000
078000
070000
0F0000
0F0000
1E0000
1E0000
3C0000
3C0000
3C0000
780000
780000
F00000
F00000
E00000
ENDCHAR
STARTCHAR 0030
ENCODING 48
SWIDTH 580 0
DWIDTH 29 0
BBX 26 34 2 0
BITMAP
003F0000
01FFE000
03FFF000
07FFF800
0FC1FC00
1F007E00
3E003F00
3C001F00
7C000F80
78000F80
78000780
F0000780
F00007C0
F00007C0
F00007C0
F00007C0
F00007C0
F00007C0
F00007C0
F00007C0
F00007C0
F80007C0
F8000F80
78000F80
7C000F80
7C001F00
3E003F00
3F007E00
1FC0FE00
0FFFFC00
0FFFF800
07FFF000
01FFC000
007F0000
ENDCHAR
STARTCHAR 0031
ENCODING 49
SWIDTH 300 0
DWIDTH 15 0
BBX 11 34 2 -1
BITMAP
00C0
07E0
1FE0
7FE0
FFE0
FFE0
F3E0
03E0
03E0
03E0
03E0
03E0
03C0
07C0
07C0
07C0
07C0
07C0
07C0
07C0
07C0
07C0
07C0
07C0
07C0
07C0
07C0
07C0
07C0
07C0
07C0
07C0
0FE0
1FE0
ENDCHAR
STARTCHAR 0032
ENCODING 50
SWIDTH 560 0
DWIDTH 28 0
BBX 25 34 2 0
BITMAP
007E0000
03FF8000
0FFFE000
1FFFF000
3F07F000
7C01F800
F800F800
F000F800
E000F800
E000F800
0000F800
0001F800
0001F800
0003F000
0003E000
0007E000
000FC000
001F8000
003F0000
007E0000
00FC0000
01F80000
03F00000
07E00000
07C00000
0F800000
1F000000
3E000000
3E000000
7EFFF800
FFFFFF00
FFFFFF80
FFFFFF00
7FFFFE00
ENDCHAR
STARTCHAR 0033
ENCODING 51
SWIDTH 560 0
DWIDTH 28 0
BBX 25 35 1 -2
BITMAP
00FE0000
07FFC000
0FFFE000
1FFFF000
3F03F800
7C00FC00
7800FC00
30007C00
00007C00
00007C00
00007800
0000F800
0003F000
000FE000
00FFC000
01FF8000
03FFE000
01FFF800
0001FC00
00007E00
00003F00
00001F80
00001F80
00000F80
00000F80
20000F80
70000F80
F8000F00
7C001F00
7E003F00
3F80FE00
3FFFFC00
0FFFF800
07FFE000
00FF8000
ENDCHAR
STARTCHAR 0034
ENCODING 52
SWIDTH 620 0
DWIDTH 31 0
BBX 28 34 2 0
BITMAP
000E0000
001E0000
003E0000
003E0000
007E0000
007C0000
007C0000
00F80000
00F80000
00F03800
01F07800
01E07C00
03E07800
03C07800
07C0F800
0780F800
0F80F800
1F00F800
1F00F800
3E00F800
7E00F800
7E01FFF0
FFFFFFF0
FFFFFFF0
FFFFFFE0
7FFFFFC0
0000F800
0000F800
0000F800
0000F800
00007800
00007800
00007800
00003000
ENDCHAR
STARTCHAR 0035
ENCODING 53
SWIDTH 540 0
DWIDTH 27 0
BBX 24 34 2 -1
BITMAP
1FFFFC
3FFFFE
3FFFFC
7FFFF0
7C0000
780000
780000
780000
780000
780000
F87F00
FBFFE0
FFFFF0
FFFFF8
FF03FC
FC00FE
F0007E
60003E
00003F
00001F
00001F
00001F
00001F
00001E
00001E
60003E
F0007C
F8007C
FC01F8
FF8FF0
7FFFF0
3FFFC0
0FFF80
03FE00
ENDCHAR
STARTCHAR 0036
ENCODING 54
SWIDTH 560 0
DWIDTH 28 0
BBX 25 35 2 1
BITMAP
0003FC00
001FFC00
00FFF800
01FFC000
03FC0000
07F00000
0FC00000
1F000000
1F000000
3E000000
3E000000
7C000000
7C7FC000
7DFFF000
FFFFFC00
FFFFFE00
FFC0FE00
FF003F00
FE001F00
FE000F80
FC000F80
FC000F80
FC000780
FC000780
7C000780
7C000780
7E000F80
3E000F00
3F001F00
1F803E00
1FE07E00
0FFFFC00
07FFF800
01FFE000
007F8000
ENDCHAR
STARTCHAR 0037
ENCODING 55
SWIDTH 540 0
DWIDTH 27 0
BBX 24 34 2 0
BITMAP
3FFFFE
7FFFFF
FFFFFF
FFFFFF
FFF0FE
00007E
00007C
0000F8
0000F8
0001F0
0003E0
0003E0
0007C0
0007C0
000F80
000F80
001F00
001F00
003F00
003E00
003E00
007C00
007C00
00FC00
00F800
01F800
01F800
03F000
03F000
03F000
07E000
07C000
078000
030000
ENDCHAR
STARTCHAR 0038
ENCODING 56
SWIDTH 560 0
DWIDTH 28 0
BBX 24 34 2 0
BITMAP
00FE00
03FFC0
0FFFE0
1FFFF0
3F03F8
3E01F8
7C00F8
7800FC
78007C
780078
780078
7800F8
7C00F0
3E01E0
1F8780
0FFFC0
07FFF8
1F00FC
3C007C
7C003E
F8001F
F8001F
F8001F
F8000F
F8001F
F8001F
FC001F
FC003F
7E007E
7F81FC
3FFFF8
0FFFF0
07FFE0
00FF00
ENDCHAR
STARTCHAR 0039
ENCODING 57
SWIDTH 560 0
DWIDTH 28 0
BBX 24 34 2 0
BITMAP
00FF00
03FFC0
0FFFE0
1FFFF0
3F83F8
7E00FC
7C007E
78003E
F8003E
F0001F
F0001F
F0001F
F0001F
F0003F
F8003F
78007F
7C007F
3E01FF
3FCFDF
0FFFBE
07FE3E
00F03E
00007C
00007C
0000FC
0001F8
0003F0
0007F0
001FE0
0FFFC0
0FFF80
0FFF00
0FFC00
07E000
ENDCHAR
STARTCHAR 003A
ENCODING 58
SWIDTH 200 0
DWIDTH 10 0
BBX 6 22 2 0
BITMAP
78
FC
FC
FC
FC
7C
38
00
00
00
00
00
00
00
00
78
FC
FC
FC
FC
FC
78
ENDCHAR
STARTCHAR 003B
ENCODING 59
SWIDTH 200 0
DWIDTH 10 0
BBX 7 28 2 -7
BITMAP
78
FC
FC
FC
FC
FC
78
00
00
00
00
00
00
00
00
00
78
FC
FE
FE
7C
7C
7C
7C
78
F8
F0
F0
ENDCHAR
STARTCHAR 003C
ENCODING 60
SWIDTH 500 0
DWIDTH 25 0
BBX 21 20 2 5
BITMAP
000038
0001F8
0007F8
001FF8
00FFC0
07FF00
1FF800
7FE000
FF0000
FC0000
FE0000
FFC000
3FF000
0FFE00
01FF80
007FF0
000FF8
0001F8
000078
000010
ENDCHAR
STARTCHAR 003D
ENCODING 61
SWIDTH 520 0
DWIDTH 26 0
BBX 23 12 2 9
BITMAP
7FFFFE
FFFFFE
FFFFFC
FFFFFC
000000
000000
000000
000000
7FFFFE
FFFFFE
FFFFFC
FFFFF8
ENDCHAR
STARTCHAR 003E
ENCODING 62
SWIDTH 500 0
DWIDTH 25 0
BBX 21 20 2 5
BITMAP
E00000
FC0000
FF0000
FFC000
3FF800
07FE00
00FFC0
003FF0
0007F8
0001F8
0003F8
001FF0
007FE0
03FF80
1FFC00
7FF000
FF8000
FC0000
F00000
400000
ENDCHAR
STARTCHAR 003F
ENCODING 63
SWIDTH 460 0
DWIDTH 23 0
BBX 20 36 2 0
BITMAP
006000
0FFC00
3FFF00
7FFF80
FFFFC0
F80FE0
E007E0
E003F0
E001F0
E001F0
6001F0
0001F0
0003E0
0003E0
0007C0
000F80
003F00
007E00
01FC00
03F000
07E000
07C000
078000
078000
078000
078000
000000
000000
000000
000000
038000
07C000
07C000
07C000
07C000
038000
ENDCHAR
STARTCHAR 0040
ENCODING 64
SWIDTH 620 0
DWIDTH 31 0
BBX 28 29 2 2
BITMAP
00070000
007FF000
01FFFC00
07C07E00
0F000F00
1C000780
180003C0
380001C0
700C70E0
707FF0E0
60F3F0E0
E1C0F0E0
E180F070
C3807070
C3807070
C3807060
C380F060
E380F0E0
E1E1F9E0
E0FFFFC0
603E3F80
70000E00
38000000
38000000
1E000070
0F0001E0
03E00FC0
01FFFF00
003FF000
ENDCHAR
STARTCHAR 0041
ENCODING 65
SWIDTH 640 0
DWIDTH 32 0
BBX 30 34 1 0
BITMAP
0001C000
0003E000
0007F000
000FF000
000FF000
001FF000
001EF800
003EF800
003EF800
007C7C00
007C7C00
00F87C00
00F83E00
00F03E00
01F03E00
01E01F00
03E01F00
03E01F00
07C00F80
07C00F80
07FFFF80
0FFFFFC0
0FFFFFC0
1FFFFFC0
1F0003E0
3E0003E0
3E0003F0
3C0001F0
7C0001F0
7C0001F8
F80000F8
F00000FC
F000007C
E0000030
ENDCHAR
STARTCHAR 0042
ENCODING 66
SWIDTH 620 0
DWIDTH 31 0
BBX 28 36 2 -2
BITMAP
00FF0000
0FFFE000
7FFFF000
FFE7F800
FF00FC00
7E007E00
1E003E00
1E003E00
3E003E00
3E003E00
3E003E00
3E007C00
3E00FC00
3E01F800
3E07F000
3FFFE000
3FFFE000
3FFFFC00
3FFFFF00
3E007F80
3E001FC0
3E000FE0
3E0007E0
3E0007E0
3E0003F0
3E0003F0
3E0003F0
3E0003E0
3E0007E0
3E000FE0
3E003FC0
3FFFFF80
1FFFFF00
1FFFFC00
0FFFF000
00FF8000
ENDCHAR
STARTCHAR 0043
ENCODING 67
SWIDTH 580 0
DWIDTH 29 0
BBX 26 35 2 -1
BITMAP
000F8000
007FF800
01FFFE00
03FFFF00
07FFFF80
0FC01FC0
1F800FC0
1F0007C0
3E0007C0
3C000780
7C000380
7C000000
78000000
F8000000
F8000000
F8000000
F8000000
F8000000
F8000000
F8000000
F8000000
F8000000
F8000000
F8000000
FC000000
7C0001C0
7E0003C0
7E0007C0
3F000F80
1F801F80
1FF07F00
0FFFFE00
07FFFC00
01FFF800
007FE000
ENDCHAR
STARTCHAR 0044
ENCODING 68
SWIDTH 640 0
DWIDTH 32 0
BBX 29 34 2 0
BITMAP
3FFC0000
FFFFE000
FFFFF800
FE0FFC00
7C00FF00
3C003F80
3C000FC0
3C0007C0
3C0003E0
3C0003E0
3C0001F0
7C0001F0
7C0000F8
7C0000F8
7C0000F8
7C0000F8
7C0000F8
7C0000F8
7C0000F8
7C0000F8
7C0000F8
7C0001F0
7C0001F0
7C0001F0
7C0003E0
7C0007E0
7C0007C0
7C000FC0
7E003F80
7F80FF00
7FFFFE00
3FFFF800
0FFFE000
01FF0000
ENDCHAR
STARTCHAR 0045
ENCODING 69
SWIDTH 540 0
DWIDTH 27 0
BBX 24 34 1 0
BITMAP
01FFFC
7FFFFE
FFFFFE
FFFFFC
7F8000
3E0000
3E0000
3E0000
3E0000
3E0000
3E0000
3E0000
3E0000
3E0000
7E7FFC
7FFFFC
7FFFF8
7FFFC0
7F0000
7E0000
7E0000
7E0000
7E0000
7E0000
7E0000
3E0000
3E0000
3E0000
3E0000
3F003F
3FFFFF
1FFFFF
0FFFFE
03FFE0
ENDCHAR
STARTCHAR 0046
ENCODING 70
SWIDTH 460 0
DWIDTH 23 0
BBX 21 34 2 0
BITMAP
03FFE0
FFFFF8
FFFFF0
FFFFE0
FE0000
FC0000
7C0000
7C0000
7C0000
7C0000
7C0000
7C0000
7C0000
7C0000
7FFFE0
7FFFE0
7FFFE0
7FFF80
7C0000
7C0000
7C0000
7C0000
7C0000
7C0000
7C0000
7C0000
7C0000
7C0000
7C0000
7C0000
7C0000
7E0000
7C0000
380000
ENDCHAR
STARTCHAR 0047
ENCODING 71
SWIDTH 640 0
DWIDTH 32 0
BBX 29 36 2 0
BITMAP
000FFC00
003FFF80
00FFFFC0
01FFFFE0
03FC07F0
07E001F0
0FC000F0
1F8000F0
1F0000E0
3F000000
3E000000
7E000000
7C000000
7C000000
7C000000
F8000000
F8000000
F803FFF0
F807FFF8
F807FFF8
F803FFF8
F80000F8
F80000F8
F80000F8
7C0000F8
7C0000F0
7E0001F0
3E0001F0
3F0003E0
1F8007E0
1FE01FC0
0FFFFF80
07FFFF00
01FFFE00
007FF800
000FC000
ENDCHAR
STARTCHAR 0048
ENCODING 72
SWIDTH 620 0
DWIDTH 31 0
BBX 27 35 2 0
BITMAP
780001E0
F80003E0
F80003E0
F80003E0
F80003E0
F80003E0
F80003E0
F80003E0
F80003E0
F80003C0
F80003C0
F80003C0
F80003C0
F80003C0
F80007C0
FFFFFFC0
FFFFFFC0
FFFFFFC0
FFFFFFC0
F80007C0
F80007C0
F80007C0
F80007C0
F80007C0
F80007C0
F80007C0
F80007C0
F80007E0
F80007E0
F80007E0
F80003E0
F80003E0
F80003E0
F80003E0
600001C0
ENDCHAR
STARTCHAR 0049
ENCODING 73
SWIDTH 280 0
DWIDTH 14 0
BBX 10 34 2 -1
BITMAP
3F80
FFC0
FFC0
FF80
7F80
3F00
3E00
3E00
3E00
3E00
3E00
3E00
3E00
3E00
3E00
3E00
3E00
3E00
3E00
3E00
3E00
3E00
3E00
3E00
3E00
3E00
3E00
3E00
3E00
1F00
3F80
7FC0
7FC0
7F80
ENDCHAR
STARTCHAR 004A
ENCODING 74
SWIDTH 460 0
DWIDTH 23 0
BBX 20 36 2 0
BITMAP
001FE0
003FF0
003FF0
001FE0
0007E0
0007E0
0007C0
0007C0
0007C0
0007E0
0007E0
0003E0
0003E0
0003E0
0003E0
0003E0
0003E0
0003E0
0003E0
0007E0
0007E0
0007E0
0007C0
0007C0
0007C0
2007C0
7007C0
F007C0
F807C0
F80780
FE0F80
7FBF00
3FFE00
1FFE00
0FF800
01F000
ENDCHAR
STARTCHAR 004B
ENCODING 75
SWIDTH 580 0
DWIDTH 29 0
BBX 25 35 2 0
BITMAP
78000000
78003800
F8007C00
F800FC00
F801FC00
F803F800
F807F000
F80FE000
F81FC000
F83F8000
F87F0000
F8FE0000
F9FC0000
FBF80000
FFF00000
FFE00000
FFC00000
FF800000
FFC00000
FFE00000
FBF00000
F9F80000
F8FC0000
F87E0000
F83F0000
F81F8000
F80FC000
F807E000
F803F800
F801FC00
F800FF00
F8007F80
F8003F80
F8000F80
60000700
ENDCHAR
STARTCHAR 004C
ENCODING 76
SWIDTH 480 0
DWIDTH 24 0
BBX 21 35 2 -1
BITMAP
300000
7C0000
FC0000
FC0000
FC0000
FC0000
FC0000
F80000
F80000
F80000
F80000
F80000
F80000
F80000
F80000
F80000
F80000
F80000
F80000
F80000
F80000
F80000
F80000
F80000
F80000
F80000
F80000
F80000
F80000
F80000
FC0000
FFFFF8
7FFFF8
7FFFF8
3FFFE0
ENDCHAR
STARTCHAR 004D
ENCODING 77
SWIDTH 760 0
DWIDTH 38 0
BBX 34 35 2 0
BITMAP
0F00003C00
3F80007E00
3FC000FE00
3FC000FF00
3FC000FF00
3FC001FF00
3FE001FF00
3FE001FF00
7FE001FF00
7FF003FF80
7DF003EF80
7DF003CF80
7DF807CF80
78F807CF80
78F8078F80
78FC078780
787C0F87C0
787C0F07C0
787E0F07C0
783E1F07C0
783E1F07C0
F83E1E07C0
F81F3E03C0
F81F3E03C0
F01F7C03C0
F80FFC03C0
F80FFC03C0
F80FF803C0
F807F803C0
F807F803C0
F807F003C0
F803F003C0
F003F003C0
F001E003C0
E001C00180
ENDCHAR
STARTCHAR 004E
ENCODING 78
SWIDTH 640 0
DWIDTH 32 0
BBX 29 34 1 1
BITMAP
18000070
7C0000F8
7E0000F8
7F0000F8
7F8000F8
7F8000F8
7FC000F8
7FC000F8
7BE000F8
79F000F8
78F000F8
78F800F8
787C00F8
787C00F8
783E00F8
781E00F8
781F00F8
780F80F8
7807C0F8
7807C0F8
7803E0F8
7801F0F8
7801F8F8
7800F8F8
78007CF8
78007EF8
78003FF8
78001FF8
78001FF8
7C000FF8
780007F8
F80003F0
F00001F0
70000000
ENDCHAR
STARTCHAR 004F
ENCODING 79
SWIDTH 660 0
DWIDTH 33 0
BBX 30 34 2 0
BITMAP
000FE000
007FFC00
00FFFF00
03FFFF80
07F01FC0
0FC007E0
0F8001F0
1F0000F0
3E0000F8
3E000078
7C000078
7C00007C
7C00003C
F800003C
F800003C
F800003C
F800003C
F800003C
F800003C
F800003C
F800003C
FC000078
7C000078
7C000078
7E0000F0
3E0000F0
3F0001E0
1F8003E0
1FC007C0
0FF01F80
07FFFF00
03FFFC00
00FFF800
001FC000
ENDCHAR
STARTCHAR 0050
ENCODING 80
SWIDTH 560 0
DWIDTH 28 0
BBX 25 35 2 0
BITMAP
07FFC000
3FFFF000
FFFFF800
FFC7FE00
FE007E00
3E003F00
3E001F00
3E001F80
3E000F80
3E000F80
3E000F80
3E000F80
3E001F00
3E001F00
3E003F00
3E007E00
3E00FC00
3E07F800
3FFFF000
7FFFE000
7FFF8000
7FFC0000
7C000000
7C000000
7C000000
7C000000
7C000000
7C000000
7E000000
7E000000
3E000000
3E000000
3E000000
3E000000
18000000
ENDCHAR
STARTCHAR 0051
ENCODING 81
SWIDTH 680 0
DWIDTH 34 0
BBX 36 42 2 -8
BITMAP
000FE00000
007FFC0000
00FFFF0000
03FFFF8000
07F01FC000
0FC007E000
0F8001F000
1F0000F000
3E0000F800
3E00007800
7C00007800
7C00007C00
7C00003C00
F800003C00
F800003C00
F800003C00
F800003C00
F800003C00
F800003C00
F806003C00
F80F003C00
FC0F807800
7C07C07800
7C07E07800
7E03F0F000
3E01F8F000
3F00F9E000
1F807FE000
1FC07FC000
0FF03F8000
07FFFF0000
03FFFF8000
00FFFF8000
001FC7C000
000003E000
000003E0E0
000001FBF0
000000FFE0
0000007FE0
0000007FC0
0000003F80
0000000400
ENDCHAR
STARTCHAR 0052
ENCODING 82
SWIDTH 600 0
DWIDTH 30 0
BBX 27 34 2 0
BITMAP
07FF0000
7FFFE000
FFFFF800
FE01FC00
7E007E00
3E003F00
3E001F00
3E001F80
3E000F80
3E000F80
3E001F80
3E001F80
3E003F00
3E007F00
3E00FE00
7E03FC00
7FFFF800
7FFFE000
7FFF8000
7FFC0000
7FFC0000
7CFE0000
7C3F0000
7C1FC000
7C0FE000
7C07F000
7C01F800
7E00FC00
7E007F00
3E003F80
3E001FC0
3E000FE0
3C0007E0
380001C0
ENDCHAR
STARTCHAR 0053
ENCODING 83
SWIDTH 580 0
DWIDTH 29 0
BBX 26 35 2 -2
BITMAP
003FC000
01FFF000
07FFF800
0FFFFC00
3F80FC00
3E003C00
7C003800
F8003000
F8000000
F8000000
F8000000
FC000000
7E000000
7FC00000
3FFC0000
1FFFE000
07FFF800
01FFFE00
001FFF00
0000FF80
00003F80
00001F80
00000FC0
000007C0
000007C0
00000780
60000780
F0000F80
F0001F00
F8007F00
FF01FE00
7FFFFC00
3FFFF800
1FFFE000
03FF0000
ENDCHAR
STARTCHAR 0054
ENCODING 84
SWIDTH 600 0
DWIDTH 30 0
BBX 28 34 1 0
BITMAP
1EFFFFE0
7FFFFFF0
7FFFFFE0
FFFFFFC0
3FFFFE00
001F0000
001F0000
001F0000
001F0000
001F0000
001F0000
001F0000
001F0000
001F0000
001F0000
001F0000
001F0000
001F0000
001F0000
001F0000
001F0000
001F0000
001F0000
001F0000
001F0000
001F0000
001F0000
001F0000
001F0000
001F8000
001F8000
001F8000
000F0000
000E0000
ENDCHAR
STARTCHAR 0055
ENCODING 85
SWIDTH 640 0
DWIDTH 32 0
BBX 28 35 2 1
BITMAP
380001F0
7C0001F0
FC0001F0
FC0001F0
F80001F0
F80001F0
F80001F0
F80001F0
F80001F0
F80001F0
F80001F0
F80001F0
F80001F0
F80003F0
F80003F0
F80003F0
F80003E0
F80003E0
F80003E0
F80003E0
F80003E0
F80003E0
F80003E0
F80007E0
FC0007C0
7C0007C0
7C000FC0
7E000F80
3F001F80
3F803F00
1FE07F00
0FFFFE00
07FFFC00
01FFF000
003FC000
ENDCHAR
STARTCHAR 0056
ENCODING 86
SWIDTH 600 0
DWIDTH 30 0
BBX 28 34 1 0
BITMAP
30000070
F00001F0
F80001F0
F80003E0
FC0003E0
7C0007E0
7C0007C0
7E0007C0
3E000F80
3E000F80
1F000F80
1F001F00
1F001F00
0F801F00
0F801E00
0F803E00
07C03E00
07C03C00
03E07C00
03E07C00
03E07800
01F0F800
01F0F800
01F0F000
00F9F000
00F9F000
007FE000
007FE000
007FC000
003FC000
003F8000
001F8000
001F0000
000E0000
ENDCHAR
STARTCHAR 0057
ENCODING 87
SWIDTH 920 0
DWIDTH 46 0
BBX 44 34 1 1
BITMAP
700006000070
F8000F0001F0
F8001F8001F0
FC001F8001F0
7C003F8003E0
7C003FC003E0
7E007FC003E0
7E007FC003C0
3E007BC007C0
3E007BE007C0
3E00FBE007C0
3F00F1E00780
1F00F1E00F80
1F00F1F00F80
1F01F0F00F80
1F81E0F00F00
0F81E0F81F00
0F81E0F81F00
0F81E0781E00
0FC3C0781E00
07C3C07C1E00
07C3C03C3E00
07C7C03C3C00
03E7803C3C00
03E7803E3C00
03EF801E7C00
03FF001E7800
01FF001F7800
01FF000FF800
01FE000FF000
00FE000FF000
00FE0007F000
007C0007E000
00380003C000
ENDCHAR
STARTCHAR 0058
ENCODING 88
SWIDTH 620 0
DWIDTH 31 0
BBX 29 34 1 0
BITMAP
380000E0
7C0003F0
7E0003E0
3F0007E0
1F000FC0
1F800F80
0F801F00
07C01F00
03E03E00
03F07C00
01F0F800
00F8F800
007DF000
007FE000
003FE000
001FC000
001F8000
001FC000
003FE000
007FE000
00FDF000
00F9F800
01F0FC00
03F07C00
03E03E00
07C03F00
0F801F80
1F800FC0
1F000FE0
3E0007E0
7E0003F0
FC0001F8
F80000F8
F0000070
ENDCHAR
STARTCHAR 0059
ENCODING 89
SWIDTH 600 0
DWIDTH 30 0
BBX 28 37 1 -2
BITMAP
000000E0
000000F0
700001F0
F80003F0
F80003E0
FC0007C0
7C0007C0
7E000F80
3F000F80
1F001F00
1F801F00
0F803E00
0FC03C00
07E07C00
03E0F800
03F0F800
01F9F000
00FFE000
007FE000
003FC000
001FC000
001FC000
000F8000
000F8000
000F8000
000F8000
000F8000
000F8000
000F8000
000F8000
000F8000
000F8000
000F8000
000F8000
001F8000
001F0000
000E0000
ENDCHAR
STARTCHAR 005A
ENCODING 90
SWIDTH 620 0
DWIDTH 31 0
BBX 28 34 2 0
BITMAP
3FFFFF00
7FFFFFC0
FFFFFFE0
FFFFFFE0
60001FC0
00001F80
00003F00
00007E00
0000FC00
0001F800
0003F000
0003E000
0007C000
000F8000
001F8000
001F0000
003E0000
007C0000
00F80000
00F80000
01F00000
03E00000
07E00000
07C00000
0F800000
1F800000
1F000000
3E000000
7E000000
7FFFFFF0
FFFFFFF0
FFFFFFF0
FFFFFFE0
7FFFFF80
ENDCHAR
STARTCHAR 005B
ENCODING 91
SWIDTH 300 0
DWIDTH 15 0
BBX 12 45 2 -6
BITMAP
3FE0
FFE0
FFE0
FFC0
F800
F800
F800
F800
F800
F800
F800
F800
F800
F800
F800
F800
F800
F800
F800
F800
F800
F800
F800
F800
F800
F800
F800
F800
F800
F800
F800
F800
F800
F800
F800
F800
F800
F800
F800
FC00
FC00
FFF0
FFF0
FFF0
7FE0
ENDCHAR
STARTCHAR 005C
ENCODING 92
SWIDTH 440 0
DWIDTH 22 0
BBX 18 36 2 1
BITMAP
F00000
F80000
780000
7C0000
3C0000
3C0000
1E0000
1E0000
0F0000
0F0000
0F0000
078000
078000
03C000
03C000
01C000
01E000
01E000
00F000
00F000
007000
007800
007800
003C00
003C00
001E00
001E00
001E00
000F00
000F00
000780
000780
0007C0
0003C0
0001C0
0001C0
ENDCHAR
STARTCHAR 005D
ENCODING 93
SWIDTH 300 0
DWIDTH 15 0
BBX 12 45 2 -6
BITMAP
7F80
FFE0
FFE0
7FE0
03E0
03E0
03E0
03E0
03E0
01E0
01E0
01E0
01F0
01F0
01F0
01F0
01F0
01F0
01F0
01F0
01F0
01F0
01F0
01F0
01F0
01F0
01F0
01F0
01F0
01F0
01F0
01F0
01F0
01F0
01F0
01F0
01F0
01F0
01F0
01F0
01F0
7FF0
FFF0
7FF0
3FE0
ENDCHAR
STARTCHAR 005E
ENCODING 94
SWIDTH 440 0
DWIDTH 22 0
BBX 18 13 2 23
BITMAP
01C000
03E000
07F000
0FF800
0FF800
1F7C00
3E3E00
3E1F00
7C1F00
7C0F80
F80F80
F007C0
F003C0
ENDCHAR
STARTCHAR 005F
ENCODING 95
SWIDTH 720 0
DWIDTH 36 0
BBX 32 4 2 -12
BITMAP
7FFFFFFF
FFFFFFFF
FFFFFFFF
FFFFFFFF
ENDCHAR
STARTCHAR 0060
ENCODING 96
SWIDTH 240 0
DWIDTH 12 0
BBX 8 8 2 28
BITMAP
F0
F8
F8
FC
7E
3E
0F
07
ENDCHAR
STARTCHAR 0061
ENCODING 97
SWIDTH 480 0
DWIDTH 24 0
BBX 20 26 2 0
BITMAP
03FE00
0FFF80
3FFFC0
3FFFE0
7C03E0
7001E0
2001F0
0000F0
0000F0
07FEF0
1FFFF0
3FFFF0
7FFFF0
7F03F0
FC01F0
F800F0
F000F0
F000F0
F000F0
F001F0
F001F0
7803F0
7C0FF0
3FFEF0
1FF8F0
07E060
ENDCHAR
STARTCHAR 0062
ENCODING 98
SWIDTH 520 0
DWIDTH 26 0
BBX 23 34 2 0
BITMAP
780000
780000
780000
F80000
F80000
F80000
F80000
F80000
F80000
F80000
F87F00
F9FFC0
FBFFE0
FF83F0
FE00F8
FC0078
FC007C
F8003C
F8003C
F8003E
F8003E
F8003E
F8003E
F8003C
F8003C
F8007C
F8007C
FC00F8
FE01F8
FF83F0
FFFFE0
FFFFC0
F7FF80
E1FC00
ENDCHAR
STARTCHAR 0063
ENCODING 99
SWIDTH 460 0
DWIDTH 23 0
BBX 20 26 2 -1
BITMAP
007C00
03FF00
07FF80
0FFFC0
1F07C0
3E03C0
7C01C0
780000
780000
F80000
F00000
F00000
F00000
F00000
F00000
F00000
F80000
F80000
780020
7C00F0
3E01F0
3FC7E0
1FFFE0
0FFFC0
03FF00
00F800
ENDCHAR
STARTCHAR 0064
ENCODING 100
SWIDTH 520 0
DWIDTH 26 0
BBX 23 35 2 -1
BITMAP
00001C
00003C
00003E
00003E
00003E
00003E
00003C
00003C
00003C
00003C
00003C
00FC3C
03FFBC
07FFFC
0FFFFC
1F07FC
3E01FC
7C00FC
7800FC
7800FC
F0007C
F0007C
F0007C
F0007C
F0007C
F0007C
F0007C
F000FC
7800FC
7800FC
3C01FC
3E03FE
1FFFFE
0FFF3E
03FC1C
ENDCHAR
STARTCHAR 0065
ENCODING 101
SWIDTH 520 0
DWIDTH 26 0
BBX 22 24 2 0
BITMAP
00FE00
03FF80
0FFFC0
1FFFE0
3F07E0
3E03F0
7C01F0
7801F0
F801E0
F803E0
F007C0
F01F80
FFFE00
FFE000
F80000
F80000
F8001C
7C003C
7E007C
3F81F8
3FFFF0
1FFFE0
07FF80
01FE00
ENDCHAR
STARTCHAR 0066
ENCODING 102
SWIDTH 420 0
DWIDTH 21 0
BBX 19 37 2 -1
BITMAP
001F80
007FC0
00FFE0
01FFE0
03F0E0
03E0E0
03C000
07C000
07C000
07C000
07C000
07C000
1FFF00
FFFF80
FFFF00
FFFE00
6FC000
07C000
07C000
07C000
07C000
07C000
07C000
07C000
07C000
07C000
07C000
07C000
07C000
07C000
07C000
07C000
07C000
07C000
07C000
078000
070000
ENDCHAR
STARTCHAR 0067
ENCODING 103
SWIDTH 500 0
DWIDTH 25 0
BBX 22 36 2 -11
BITMAP
00FE38
03FFFC
07FFFC
1F87F8
1F01F8
3C00F8
7C00F8
7800F8
F800F8
F80078
F00078
F00078
F000F8
F000F8
F000F8
F800F8
F800F0
F801F0
7C01F0
7E03F0
3FFFF0
1FFFF0
0FFFF0
03FEF0
0000F0
0000F0
2000F0
7800F0
F801F0
7C01F0
7E03F0
3F07E0
3FFFE0
0FFFC0
07FF80
00FE00
ENDCHAR
STARTCHAR 0068
ENCODING 104
SWIDTH 500 0
DWIDTH 25 0
BBX 22 34 2 1
BITMAP
F80000
F80000
F80000
F80000
F80000
F80000
F80000
F80000
F80000
F80000
F81F80
F87FC0
F8FFF0
FBFFF0
FFC1F8
FF00F8
FE00F8
FE00F8
FC00F8
FC00F8
FC00F8
F800F8
F800F8
F800F8
F800F8
F800F8
F800F8
F800F8
F800FC
F8007C
F0007C
F0007C
F0007C
E00030
ENDCHAR
STARTCHAR 0069
ENCODING 105
SWIDTH 180 0
DWIDTH 9 0
BBX 6 34 2 0
BITMAP
38
78
FC
FC
F8
78
00
00
00
00
38
78
F8
F8
F8
F8
F8
F8
F8
F8
F8
F8
F8
F8
F8
F8
F8
F8
F8
F8
F8
F8
F8
70
ENDCHAR
STARTCHAR 006A
ENCODING 106
SWIDTH 180 0
DWIDTH 9 0
BBX 14 47 -7 -13
BITMAP
0038
007C
007C
007C
007C
0078
0000
0000
0000
0038
007C
007C
007C
007C
007C
007C
007C
007C
007C
007C
007C
007C
007C
007C
007C
007C
007C
007C
007C
007C
007C
007C
007C
007C
007C
007C
007C
007C
007C
407C
C07C
E0F8
F0F8
FFF8
7FF0
3FE0
0FC0
ENDCHAR
STARTCHAR 006B
ENCODING 107
SWIDTH 480 0
DWIDTH 24 0
BBX 21 34 2 0
BITMAP
780000
F80000
F80000
F80000
F80000
F80000
F80000
F80000
F80000
F80000
F800E0
F803F0
F807E0
F80FC0
F81F80
F83E00
F87C00
F8F800
FBF000
FFE000
FFC000
FFE000
FBF000
F9F800
F8FC00
F87E00
F83F00
F81F80
F80FC0
F807E0
F803F0
F801F8
F000F8
700070
ENDCHAR
STARTCHAR 006C
ENCODING 108
SWIDTH 180 0
DWIDTH 9 0
BBX 5 36 2 1
BITMAP
78
78
78
78
78
F8
F8
F8
F8
F8
F8
F8
F8
F8
F8
F8
F8
F8
F8
F8
F8
F8
F8
F8
F8
F8
F8
F8
F8
F8
F8
F8
F8
F8
F8
60
ENDCHAR
STARTCHAR 006D
ENCODING 109
SWIDTH 800 0
DWIDTH 40 0
BBX 37 24 2 0
BITMAP
700C001C00
F87F80FF80
F8FFC1EFC0
F9C3E703E0
FB01FE03E0
FE01FC01E0
FC01FC01F0
FC00F801F0
F800F801F0
F800F801F0
F800F801F0
F800F801F0
F800F801F0
F800F801F0
F800F801F0
F800F801F0
F800F801F0
F800F801F0
F800F801F0
F800F801F0
F800F800F0
F800F800F0
F000F000F8
6000F00070
ENDCHAR
STARTCHAR 006E
ENCODING 110
SWIDTH 500 0
DWIDTH 25 0
BBX 21 24 2 0
BITMAP
783F80
F87FC0
F9FFE0
FF83F0
FF01F0
FF00F8
FE00F8
FE00F8
FC00F8
FC00F8
FC00F8
F800F8
F800F8
F800F8
F800F8
F800F8
F800F8
F800F8
F800F8
F800F8
F800F8
F800F8
F80078
700078
ENDCHAR
STARTCHAR 006F
ENCODING 111
SWIDTH 500 0
DWIDTH 25 0
BBX 21 24 2 0
BITMAP
00FC00
03FF00
0FFFC0
1FFFC0
3F07E0
3E01F0
7C01F0
7800F8
7800F8
F00078
F00078
F00078
F00078
F00078
F00078
F800F0
7800F0
7C01F0
7C03E0
3F07C0
1FFFC0
1FFF80
07FE00
01F800
ENDCHAR
STARTCHAR 0070
ENCODING 112
SWIDTH 500 0
DWIDTH 25 0
BBX 22 36 2 -12
BITMAP
781C00
F8FF80
FBFFC0
FF03E0
FE01F0
FC00F8
FC00F8
FC0078
F8007C
F8007C
F8007C
F8007C
F8007C
F8007C
F8007C
F8007C
FC00F8
FC00F8
FE01F0
FF87F0
FFFFE0
FFFFC0
FBFF00
F8FC00
F80000
F80000
F80000
F80000
F80000
F80000
F80000
F80000
F80000
F80000
F80000
700000
ENDCHAR
STARTCHAR 0071
ENCODING 113
SWIDTH 500 0
DWIDTH 25 0
BBX 22 35 2 -11
BITMAP
00FE38
03FFFC
0FFFFC
1F87F8
1F01F8
3C01F8
7C00F8
7800F8
F800F8
F80078
F00078
F00078
F000F8
F000F8
F000F8
F800F8
F800F8
7801F8
7C01F8
7E03F8
3FFFF8
1FFFF0
0FFFF0
03F8F0
0000F0
0000F0
0000F0
0001F0
0001F0
0001F0
0000F0
0000F0
0000F0
0000F0
0000F0
ENDCHAR
STARTCHAR 0072
ENCODING 114
SWIDTH 360 0
DWIDTH 18 0
BBX 16 24 2 0
BITMAP
703C
F8FE
F9FF
FFFF
FFFF
FE0E
FC0E
FC00
F800
F800
F800
F800
F800
F800
F800
F800
F800
F800
F800
F800
F800
F800
F800
6000
ENDCHAR
STARTCHAR 0073
ENCODING 115
SWIDTH 460 0
DWIDTH 23 0
BBX 19 26 2 1
BITMAP
007F00
03FF80
0FFFC0
1FFFC0
3F03C0
7C03C0
780180
780000
780000
7E0000
7FC000
3FF800
1FFE00
07FF80
00FFC0
001FE0
0007E0
0003E0
0001E0
6003E0
F003E0
FC0FC0
FFFF80
7FFF00
3FFE00
07F000
ENDCHAR
STARTCHAR 0074
ENCODING 116
SWIDTH 380 0
DWIDTH 19 0
BBX 17 32 1 1
BITMAP
01C000
03E000
03E000
03E000
03E000
07E000
07E000
07E000
7FFF80
FFFF80
FFFF00
FFFE00
07C000
07C000
07C000
07C000
07C000
07C000
07C000
07C000
07C000
07C000
07C000
07C000
07C000
07C000
07C000
07C300
07FF00
03FF00
01FF00
00FE00
ENDCHAR
STARTCHAR 0075
ENCODING 117
SWIDTH 480 0
DWIDTH 24 0
BBX 20 24 2 0
BITMAP
700070
F800F0
F801F0
F801F0
F801F0
F801F0
F801F0
F801F0
F801F0
F801F0
F801F0
F801F0
F801F0
F801F0
F801F0
F801F0
F803F0
F803F0
FC07F0
7E0FF0
7FFFF0
3FFFF0
1FFEF0
07F8F0
ENDCHAR
STARTCHAR 0076
ENCODING 118
SWIDTH 460 0
DWIDTH 23 0
BBX 21 25 1 -2
BITMAP
700038
F00078
F800F8
F800F8
7801F0
7C01F0
7C01E0
3C03E0
3E03C0
3E03C0
1E07C0
1F0780
1F0780
0F0F00
0F8F00
0F9E00
079E00
07FE00
07FC00
03FC00
03F800
03F800
01F000
01F000
00E000
ENDCHAR
STARTCHAR 0077
ENCODING 119
SWIDTH 740 0
DWIDTH 37 0
BBX 35 24 1 1
BITMAP
7000E001C0
F801E003E0
F803F003C0
F803F007C0
F807F007C0
7C07F80780
7C0FF80F80
7C0F780F80
3C0F780F00
3E1E3C0F00
3E1E3C1E00
3E1E3C1E00
1E1C3C1E00
1E3C1E3C00
1F3C1E3C00
1F381E3C00
0F780F7800
0FF80F7800
0FF00FF800
07F007F000
07E007F000
07E007E000
03C003E000
018001C000
ENDCHAR
STARTCHAR 0078
ENCODING 120
SWIDTH 480 0
DWIDTH 24 0
BBX 22 24 1 0
BITMAP
38001C
3C007C
3E00F8
3E01F0
1F01F0
0F83E0
0FC7C0
07CF80
03FF00
01FE00
00FE00
00FC00
00FE00
01FF00
03FF00
07CF80
0787C0
0F83E0
1F03F0
3E01F8
7C00FC
FC007C
F8003C
E00018
ENDCHAR
STARTCHAR 0079
ENCODING 121
SWIDTH 500 0
DWIDTH 25 0
BBX 23 37 1 -14
BITMAP
70001C
F0003E
F8003E
F8007C
7C007C
7C00F8
7E00F8
3E00F0
3E01F0
1F01F0
1F01E0
0F83E0
0F83E0
0787C0
07C7C0
07C780
03EF80
03EF80
01FF00
01FF00
00FE00
00FE00
007C00
007C00
007C00
007800
00F800
00F800
01F000
01F000
01E000
03E000
03E000
03E000
03C000
03C000
03C000
ENDCHAR
STARTCHAR 007A
ENCODING 122
SWIDTH 480 0
DWIDTH 24 0
BBX 21 24 2 0
BITMAP
7FFFC0
FFFFF0
FFFFF0
FFFFE0
0007E0
000FC0
000F80
001F00
003E00
007C00
007C00
00F800
01F000
03E000
03E000
07C000
0F8000
1F0000
3F0000
3E0000
7FFFF0
FFFFF8
FFFFF0
FFFFE0
ENDCHAR
STARTCHAR 007B
ENCODING 123
SWIDTH 420 0
DWIDTH 21 0
BBX 18 45 1 -6
BITMAP
001F80
007F80
00FFC0
01FF80
01F800
03F000
03E000
03E000
03E000
03E000
03E000
03E000
03E000
03E000
03E000
03E000
03E000
03E000
07C000
1FC000
7F8000
FF0000
FE0000
FF0000
7F8000
3FC000
0FC000
07E000
03E000
03E000
03E000
03E000
03E000
03E000
03E000
03E000
03E000
03E000
03E000
01F000
01F800
00FFC0
00FFC0
003FC0
000F80
ENDCHAR
STARTCHAR 007C
ENCODING 124
SWIDTH 180 0
DWIDTH 9 0
BBX 5 45 2 -6
BITMAP
78
78
F8
F8
F8
F8
F8
F8
F8
F8
F8
F8
F8
F8
F8
F8
F8
F8
F8
F8
F8
F8
F8
F8
F8
F8
F8
F8
F8
F8
F8
F8
F8
F8
F8
F8
F8
F8
F8
F8
F8
F8
F8
F0
60
ENDCHAR
STARTCHAR 007D
ENCODING 125
SWIDTH 420 0
DWIDTH 21 0
BBX 18 45 2 -6
BITMAP
3E0000
7F8000
7FC000
7FE000
07E000
03F000
01F000
01F000
01F000
01F000
01F000
01F000
01F000
01F000
01F000
01F000
01F000
01F000
00F800
00FE00
007F80
003F80
001FC0
003FC0
007F80
00FF00
00FC00
00F800
01F000
01F000
01F000
01F000
01F000
01F000
01F000
01F000
01F000
01F000
01F000
03E000
07E000
7FC000
FFC000
FF0000
7C0000
ENDCHAR
STARTCHAR 007E
ENCODING 126
SWIDTH 520 0
DWIDTH 26 0
BBX 22 9 2 19
BITMAP
0F8000
3FE008
7FF01C
FFF83C
FFFFFC
E07FF8
C03FF0
001FE0
000780
ENDCHAR
STARTCHAR 00A1
ENCODING 161
SWIDTH 180 0
DWIDTH 9 0
BBX 6 37 2 -6
BITMAP
20
F8
FC
FC
FC
FC
78
00
00
00
00
38
78
7C
78
78
78
78
78
78
78
78
78
78
78
78
F8
F8
F8
F8
F8
F8
F8
F8
F8
F8
70
ENDCHAR
STARTCHAR 00A2
ENCODING 162
SWIDTH 460 0
DWIDTH 23 0
BBX 20 30 2 -2
BITMAP
0000C0
0001E0
0003C0
0007C0
00FF80
03FFC0
07FFE0
0F1FE0
1E1FE0
3C3FE0
783FE0
783DE0
787DC0
F07800
F07800
F0F000
F0F000
F1F000
F1E000
F9E000
FBC000
FFC000
7FC060
7F80F0
3F83F0
1FFFE0
0FFFC0
1FFF80
1FFE00
1C0000
ENDCHAR
STARTCHAR 00A3
ENCODING 163
SWIDTH 560 0
DWIDTH 28 0
BBX 25 34 2 -1
BITMAP
007F0000
01FFE000
03FFF000
07FFFC00
0FC07E00
1F803F00
1F000F00
3E000F80
3E000780
3E000300
3E000000
3E000000
3E000000
3E000000
3E000000
1E000000
3FFF8000
FFFF8000
FFFF8000
FFFF0000
1E000000
1E000000
1E000000
1E000000
3E000000
3C000000
3C000000
3C000000
7C000000
7FFFF000
FFFFFF00
FFFFFF00
FFFFFF00
7FFFFE00
ENDCHAR
STARTCHAR 00A4
ENCODING 164
SWIDTH 460 0
DWIDTH 23 0
BBX 20 20 2 9
BITMAP
6000C0
F1F9E0
FFFFE0
FFFFE0
7E0FC0
7C03C0
7801E0
F001E0
F001E0
F001E0
F001E0
F001E0
F003E0
7807C0
7E0FC0
7FFFE0
7FFFE0
FBF1F0
7000E0
000040
ENDCHAR
STARTCHAR 00A5
ENCODING 165
SWIDTH 620 0
DWIDTH 31 0
BBX 28 36 2 -1
BITMAP
000000E0
000001F0
700001F0
F00003E0
F80003E0
FC0007C0
7C000780
7E000F80
3E000F00
1F001F00
1F801E00
0F803C00
07C07C00
07E07800
03E0F800
01F0F000
00F9E000
007BE000
0FFFFF80
1FFFFF80
1FFFFF80
1FFFFF00
000F8000
000F8000
000F8000
000F8000
0FFFFF80
1FFFFFC0
1FFFFF80
1FFFFF00
000F8000
001F8000
001F8000
001F0000
001F0000
000E0000
ENDCHAR
STARTCHAR 00A6
ENCODING 166
SWIDTH 180 0
DWIDTH 9 0
BBX 5 40 2 -4
BITMAP
78
78
F8
F8
F8
F8
F8
F8
F8
F8
F8
F8
F8
F8
F8
F8
F8
70
00
00
00
00
10
78
F8
F8
F8
F8
F8
F8
F8
F8
F8
F8
F8
F8
F8
F8
F8
F8
ENDCHAR
STARTCHAR 00A7
ENCODING 167
SWIDTH 440 0
DWIDTH 22 0
BBX 18 35 2 -4
BITMAP
007E00
03FF00
0FFF80
3FFF80
7F0F80
7C0780
F00380
F00000
F00000
FC0000
FF0000
7FC000
FFF000
FFFE00
E3FF00
E07F80
F00FC0
F003C0
FC01C0
7F81C0
3FF1C0
0FFFC0
03FF80
00FFC0
003FC0
0007C0
0003C0
0003C0
7003C0
7807C0
7C3F80
7FFF00
7FFC00
3FF000
0F8000
ENDCHAR
STARTCHAR 00A8
ENCODING 168
SWIDTH 320 0
DWIDTH 16 0
BBX 13 6 2 31
BITMAP
6070
F078
F0F8
F0F8
F070
6070
ENDCHAR
STARTCHAR 00A9
ENCODING 169
SWIDTH 640 0
DWIDTH 32 0
BBX 29 29 2 4
BITMAP
001FE000
00FFFC00
01FFFE00
07E01F80
0F8007C0
1E0001E0
1C1FC0E0
383FF0F0
387FF070
70F07870
70E03070
E1C03038
E1C00038
E1C00038
E1C00038
E1C00038
E1C00030
E1C00030
F1E03070
71E07870
70F8F0E0
787FF0E0
3C3FE1C0
1E1F8380
1F000F00
0FE03E00
03FFFC00
01FFF000
003FC000
ENDCHAR
STARTCHAR 00AA
ENCODING 170
SWIDTH 420 0
DWIDTH 21 0
BBX 18 19 2 14
BITMAP
000180
07FBC0
1E7FC0
383FC0
301FC0
7007C0
600780
E00780
E00780
E00780
E00780
E00780
F00780
780780
7C1F80
3FFF80
1FFF80
0FFB80
03E380
ENDCHAR
STARTCHAR 00AB
ENCODING 171
SWIDTH 460 0
DWIDTH 23 0
BBX 20 18 2 4
BITMAP
01C060
07C1F0
0FC3E0
0F87E0
1F0FC0
3E0F80
7C1F00
783E00
F87C00
F87C00
7C3E00
7E1F00
3F0F80
1F07C0
0F87E0
07C3F0
07C1E0
0380E0
ENDCHAR
STARTCHAR 00AC
ENCODING 172
SWIDTH 580 0
DWIDTH 29 0
BBX 25 10 2 9
BITMAP
7FFFFF80
FFFFFF80
FFFFFF80
FFFFFF80
00000780
00000780
00000380
00000380
00000380
00000380
ENDCHAR
STARTCHAR 00AE
ENCODING 174
SWIDTH 640 0
DWIDTH 32 0
BBX 29 29 2 4
BITMAP
001FE000
00FFFC00
01FFFE00
07E01F80
0F8007C0
1E1F81E0
1C7FF0E0
387FF8F0
387FF870
70307C70
70303C70
E0703C38
E0703838
E0707838
E071F038
E07FC038
E07F8030
E07FC030
F07BE070
7079F070
707878E0
78783CE0
3C781FC0
1E300F80
1F000F00
0FE03E00
03FFFC00
01FFF000
003FC000
ENDCHAR
STARTCHAR 00AF
ENCODING 175
SWIDTH 340 0
DWIDTH 17 0
BBX 13 4 2 30
BITMAP
7FF8
FFF8
FFF8
FFF0
ENDCHAR
STARTCHAR 00B0
ENCODING 176
SWIDTH 320 0
DWIDTH 16 0
BBX 13 13 2 24
BITMAP
0F80
3FE0
7FF0
70F0
E078
E038
E038
E038
E030
E070
70E0
3FC0
1F00
ENDCHAR
STARTCHAR 00B1
ENCODING 177
SWIDTH 520 0
DWIDTH 26 0
BBX 22 26 2 0
BITMAP
007000
007800
007800
007800
007800
007800
007800
007800
007800
7FFFFC
FFFFFC
FFFFFC
FFFFF8
007800
007800
007800
007800
007800
007800
007800
007800
007800
7FFFFC
FFFFFC
FFFFFC
FFFFF8
ENDCHAR
STARTCHAR 00B2
ENCODING 178
SWIDTH 320 0
DWIDTH 16 0
BBX 13 17 2 16
BITMAP
0F80
3FC0
7FE0
E0E0
C0E0
80E0
01E0
01C0
0380
0700
0E00
1C00
3800
7000
FFF8
FFF8
FFF0
ENDCHAR
STARTCHAR 00B3
ENCODING 179
SWIDTH 320 0
DWIDTH 16 0
BBX 13 18 2 16
BITMAP
1F00
7FC0
FFE0
E1E0
40E0
00E0
01C0
0F80
1FC0
1FF0
00F0
0078
C078
E078
F0F0
7FF0
3FE0
0F80
ENDCHAR
STARTCHAR 00B4
ENCODING 180
SWIDTH 240 0
DWIDTH 12 0
BBX 8 8 2 28
BITMAP
0F
1F
3F
3E
7E
F8
F0
E0
ENDCHAR
STARTCHAR 00B6
ENCODING 182
SWIDTH 460 0
DWIDTH 23 0
BBX 0 0 0 0
BITMAP
ENDCHAR
STARTCHAR 00B7
ENCODING 183
SWIDTH 200 0
DWIDTH 10 0
BBX 6 7 2 14
BITMAP
78
F8
FC
FC
FC
FC
78
ENDCHAR
STARTCHAR 00B8
ENCODING 184
SWIDTH 360 0
DWIDTH 18 0
BBX 15 14 1 -11
BITMAP
0F00
0F00
0F80
07C0
01F0
007C
003E
001E
601E
601E
F03E
7FFC
3FF8
07C0
ENDCHAR
STARTCHAR 00B9
ENCODING 185
SWIDTH 200 0
DWIDTH 10 0
BBX 6 18 2 16
BITMAP
1C
7C
FC
FC
1C
1C
1C
1C
3C
3C
3C
3C
3C
3C
3C
3C
3C
7C
ENDCHAR
STARTCHAR 00BA
ENCODING 186
SWIDTH 360 0
DWIDTH 18 0
BBX 14 16 2 18
BITMAP
07C0
1FE0
3FF0
7C78
703C
F01C
E01C
E01C
E01C
E01C
E03C
F03C
78F8
7FF0
3FE0
0F80
ENDCHAR
STARTCHAR 00BB
ENCODING 187
SWIDTH 460 0
DWIDTH 23 0
BBX 20 18 2 4
BITMAP
E07800
F07C00
F83E00
7C1F00
3E1F80
1F0F80
0F87C0
0783E0
07C1F0
07C1F0
0F83E0
1F87C0
3F0F80
7E1F80
7C3F00
F83E00
F07C00
603800
ENDCHAR
STARTCHAR 00BC
ENCODING 188
SWIDTH 620 0
DWIDTH 31 0
BBX 28 34 2 0
BITMAP
1C000000
7C000000
FC000000
FC000000
1C000000
3C000000
3C000000
3C000000
3C008000
3C01C000
3C03C000
3C03C000
3C07C000
3C0F8000
3C0F8000
3C1F0000
3C3E1800
7E3E3C00
007C3800
00F87800
01F07300
01F07780
03E0E780
07C0E780
07C1C700
0783C700
07038700
0707FFF0
0007FFF0
0003FFE0
00000700
00000700
00000300
00000300
ENDCHAR
STARTCHAR 00BD
ENCODING 189
SWIDTH 660 0
DWIDTH 33 0
BBX 30 34 2 -1
BITMAP
1C000000
7C000000
FC000000
FC000000
1C000000
3C000000
3C000000
3C000000
3C008000
3C01C000
3C03C000
3C03C000
3C07C000
3C0F8000
3C0F8000
3C1F0000
3C3E0F80
7E3E3FE0
007C7FE0
00F870F0
01F0E0F0
01F040F0
03E000F0
07C001E0
07C001C0
078003C0
07000780
07000F00
00001E00
00003C00
00007800
00007FF8
0000FFFC
00007FF8
ENDCHAR
STARTCHAR 00BE
ENCODING 190
SWIDTH 720 0
DWIDTH 36 0
BBX 32 34 2 0
BITMAP
1F000000
7FC00000
FFE00000
E1E00000
40E00000
00E00000
01E00000
0FC00000
1F800800
1FE01C00
01F01C00
00783C00
00787C00
C0787C00
E078F800
F0F1F000
7FE1F1C0
3FC3E3C0
0607C3C0
000F8380
000F8790
001F0738
003E0738
003E0E38
007C1E38
00781C38
00783C38
00707FFF
00007FFF
00003FFE
00000078
00000038
00000038
00000030
ENDCHAR
STARTCHAR 00BF
ENCODING 191
SWIDTH 460 0
DWIDTH 23 0
BBX 20 36 2 -6
BITMAP
003800
007C00
007E00
007E00
007E00
007C00
003800
000000
000000
000000
000C00
001E00
001E00
001E00
001E00
003E00
007E00
01FC00
03F000
07E000
1FC000
3F0000
3E0000
7C0000
780000
F80000
F80060
F80070
F80070
FC0070
7E00F0
7F01F0
3FFFF0
1FFFE0
0FFFC0
03FF00
ENDCHAR
STARTCHAR 00C0
ENCODING 192
SWIDTH 660 0
DWIDTH 33 0
BBX 29 47 2 1
BITMAP
00070000
00078000
0007C000
0007E000
0003F000
0001F000
0000F800
00003800
00000000
00000000
00000000
00000000
00000000
0001C000
0003E000
0007F000
000FF000
000FF000
001FF000
001FF800
003EF800
003EF800
007C7C00
007C7C00
00F87C00
00F83E00
00F03E00
01F03E00
01E01F00
03E01F00
03E01F00
07C00F80
07C00F80
07FFFF80
0FFFFFC0
0FFFFFC0
1FFFFFC0
1F0003E0
3E0003E0
3E0003F0
3C0001F0
7C0001F0
7C0001F8
F80000F8
F00000F8
F0000078
E0000030
ENDCHAR
STARTCHAR 00C1
ENCODING 193
SWIDTH 660 0
DWIDTH 33 0
BBX 29 47 2 1
BITMAP
00007800
00007800
0000F800
0001F800
0003F000
0003E000
0007C000
00070000
00000000
00000000
00000000
00000000
00000000
0001C000
0003E000
0007F000
000FF000
000FF000
001FF000
001FF800
003EF800
003EF800
007C7C00
007C7C00
00F87C00
00F83E00
00F03E00
01F03E00
01E01F00
03E01F00
03E01F00
07C00F80
07C00F80
07FFFF80
0FFFFFC0
0FFFFFC0
1FFFFFC0
1F0003E0
3E0003E0
3E0003F0
3C0001F0
7C0001F0
7C0001F8
F80000F8
F00000F8
F0000078
E0000030
ENDCHAR
STARTCHAR 00C2
ENCODING 194
SWIDTH 660 0
DWIDTH 33 0
BBX 29 47 2 1
BITMAP
0000E000
0001E000
0003F000
0007F800
000F3C00
001F1C00
001E1E00
003C0F00
00080000
00000000
00000000
00000000
00000000
0001C000
0003E000
0007F000
000FF000
000FF000
001FF000
001FF800
003EF800
003EF800
007C7C00
007C7C00
00F87C00
00F83E00
00F03E00
01F03E00
01E01F00
03E01F00
03E01F00
07C00F80
07C00F80
07FFFF80
0FFFFFC0
0FFFFFC0
1FFFFFC0
1F0003E0
3E0003E0
3E0003F0
3C0001F0
7C0001F0
7C0001F8
F80000F8
F00000F8
F0000078
E0000030
ENDCHAR
STARTCHAR 00C3
ENCODING 195
SWIDTH 660 0
DWIDTH 33 0
BBX 29 46 2 0
BITMAP
00020000
001FC040
003FE0C0
007FFFC0
0070FFC0
00207F80
00001E00
00000000
00000000
00000000
00000000
00000000
0001C000
0003E000
0007F000
000FF000
000FF000
001FF000
001FF800
003EF800
003EF800
007C7C00
007C7C00
00F87C00
00F83E00
00F03E00
01F03E00
01E01F00
03E01F00
03E01F00
07C00F80
07C00F80
07FFFF80
0FFFFFC0
0FFFFFC0
1FFFFFC0
1F0003E0
3E0003E0
3E0003F0
3C0001F0
7C0001F0
7C0001F8
F80000F8
F00000F8
F0000078
E0000030
ENDCHAR
STARTCHAR 00C4
ENCODING 196
SWIDTH 660 0
DWIDTH 33 0
BBX 29 45 2 1
BITMAP
001C0E00
001E1E00
003E1E00
003E1E00
001C1E00
001C0C00
00000000
00000000
00000000
00000000
00000000
0001C000
0003E000
0007F000
000FF000
000FF000
001FF000
001FF800
003EF800
003EF800
007C7C00
007C7C00
00F87C00
00F83E00
00F03E00
01F03E00
01E01F00
03E01F00
03E01F00
07C00F80
07C00F80
07FFFF80
0FFFFFC0
0FFFFFC0
1FFFFFC0
1F0003E0
3E0003E0
3E0003F0
3C0001F0
7C0001F0
7C0001F8
F80000F8
F00000F8
F0000078
E0000030
ENDCHAR
STARTCHAR 00C5
ENCODING 197
SWIDTH 660 0
DWIDTH 33 0
BBX 29 48 2 0
BITMAP
0001F000
0007FC00
000F1E00
001C0E00
001C0F00
001C0F00
001C0E00
001E1E00
000FFC00
000FF800
0003E000
00000000
00000000
00000000
0001C000
0003E000
0007F000
000FF000
000FF000
001FF000
001FF800
003EF800
003EF800
007C7C00
007C7C00
00F87C00
00F83E00
00F03E00
01F03E00
01E01F00
03E01F00
03E01F00
07C00F80
07C00F80
07FFFF80
0FFFFFC0
0FFFFFC0
1FFFFFC0
1F0003E0
3E0003E0
3E0003F0
3C0001F0
7C0001F0
7C0001F8
F80000F8
F00000F8
F0000078
E0000030
ENDCHAR
STARTCHAR 00C6
ENCODING 198
SWIDTH 1000 0
DWIDTH 50 0
BBX 47 34 2 0
BITMAP
00000003FFF8
000001FFFFFC
000007FFFFFC
00000FFFFFF8
00001FFF0000
00001F7C0000
00003E7C0000
00003C7C0000
0000787C0000
0000F87C0000
0001F07C0000
0001E0FC0000
0003E0FC0000
0007C0FC0000
000780FCFFF8
000FFFFFFFF8
001FFFFFFFF0
001FFFFFFF80
003FFFFE0000
007F80FC0000
007800FC0000
00F800FC0000
01F000FC0000
01E000FC0000
03E000FC0000
07C0007C0000
0780007C0000
0F80007C0000
1F00007C0000
3F00007E007E
3E00007FFFFE
7C00007FFFFE
F800003FFFFC
F000001FFFC0
ENDCHAR
STARTCHAR 00C7
ENCODING 199
SWIDTH 580 0
DWIDTH 29 0
BBX 26 47 2 -12
BITMAP
000F8000
007FF800
01FFFE00
03FFFF00
07FFFF80
0FC01FC0
1F800FC0
1F0007C0
3E0007C0
3C000780
7C000380
7C000000
78000000
F8000000
F8000000
F8000000
F8000000
F8000000
F8000000
F8000000
F8000000
F8000000
F8000000
F8000000
FC000000
7C0001C0
7E0003C0
7E0007C0
3F000F80
1F801F80
1FF07F00
0FFFFE00
07FFFC00
01FFF800
007FE000
001E0000
001F8000
0007E000
0001F000
00007800
00003C00
00803C00
01C03C00
01C0FC00
01FFF800
00FFF000
001F8000
ENDCHAR
STARTCHAR 00C8
ENCODING 200
SWIDTH 540 0
DWIDTH 27 0
BBX 24 47 1 1
BITMAP
007000
00F800
00FC00
007E00
003E00
001F00
000F00
000780
000000
000000
000000
000000
000000
01FFFC
7FFFFE
FFFFFE
FFFFFC
7F8000
3E0000
3E0000
3E0000
3E0000
3E0000
3E0000
3E0000
3E0000
3E0000
7E7FFC
7FFFFC
7FFFF8
7FFFC0
7F0000
7E0000
7E0000
7E0000
7E0000
7E0000
7E0000
3E0000
3E0000
3E0000
3E0000
3F003F
3FFFFF
1FFFFF
0FFFFE
03FFE0
ENDCHAR
STARTCHAR 00C9
ENCODING 201
SWIDTH 540 0
DWIDTH 27 0
BBX 24 47 1 1
BITMAP
000700
000F80
001F80
001F00
003F00
007C00
007800
007000
000000
000000
000000
000000
000000
01FFFC
7FFFFE
FFFFFE
FFFFFC
7F8000
3E0000
3E0000
3E0000
3E0000
3E0000
3E0000
3E0000
3E0000
3E0000
7E7FFC
7FFFFC
7FFFF8
7FFFC0
7F0000
7E0000
7E0000
7E0000
7E0000
7E0000
7E0000
3E0000
3E0000
3E0000
3E0000
3F003F
3FFFFF
1FFFFF
0FFFFE
03FFE0
ENDCHAR
STARTCHAR 00CA
ENCODING 202
SWIDTH 540 0
DWIDTH 27 0
BBX 24 47 1 1
BITMAP
001C00
003E00
007F00
007F00
00F780
01E3C0
03C1E0
03C0E0
010000
000000
000000
000000
000000
01FFFC
7FFFFE
FFFFFE
FFFFFC
7F8000
3E0000
3E0000
3E0000
3E0000
3E0000
3E0000
3E0000
3E0000
3E0000
7E7FFC
7FFFFC
7FFFF8
7FFFC0
7F0000
7E0000
7E0000
7E0000
7E0000
7E0000
7E0000
3E0000
3E0000
3E0000
3E0000
3F003F
3FFFFF
1FFFFF
0FFFFE
03FFE0
ENDCHAR
STARTCHAR 00CB
ENCODING 203
SWIDTH 540 0
DWIDTH 27 0
BBX 24 45 1 1
BITMAP
01C0C0
03C1E0
03E1E0
03C1E0
03C1E0
0181C0
000000
000000
000000
000000
000000
01FFFC
7FFFFE
FFFFFE
FFFFFC
7F8000
3E0000
3E0000
3E0000
3E0000
3E0000
3E0000
3E0000
3E0000
3E0000
7E7FFC
7FFFFC
7FFFF8
7FFFC0
7F0000
7E0000
7E0000
7E0000
7E0000
7E0000
7E0000
3E0000
3E0000
3E0000
3E0000
3F003F
3FFFFF
1FFFFF
0FFFFE
03FFE0
ENDCHAR
STARTCHAR 00CC
ENCODING 204
SWIDTH 280 0
DWIDTH 14 0
BBX 10 47 1 0
BITMAP
3800
7C00
7E00
3F00
1F00
0F80
0780
03C0
0000
0000
0000
0000
0000
3F80
FFC0
FFC0
FF80
7F80
3F00
3E00
3E00
3E00
3E00
3E00
3E00
3E00
3E00
3E00
3E00
3E00
3E00
3E00
3E00
3E00
3E00
3E00
3E00
3E00
3E00
3E00
3E00
3E00
1F00
3F80
7FC0
7FC0
7F80
ENDCHAR
STARTCHAR 00CD
ENCODING 205
SWIDTH 280 0
DWIDTH 14 0
BBX 10 47 1 0
BITMAP
0380
07C0
0FC0
0F80
1F80
3E00
3C00
3800
0000
0000
0000
0000
0000
3F80
FFC0
FFC0
FF80
7F80
3F00
3E00
3E00
3E00
3E00
3E00
3E00
3E00
3E00
3E00
3E00
3E00
3E00
3E00
3E00
3E00
3E00
3E00
3E00
3E00
3E00
3E00
3E00
3E00
1F00
3F80
7FC0
7FC0
7F80
ENDCHAR
STARTCHAR 00CE
ENCODING 206
SWIDTH 280 0
DWIDTH 14 0
BBX 13 47 0 0
BITMAP
0300
0780
0FC0
1FE0
3CF0
78F0
7878
F038
6000
0000
0000
0000
0000
0FE0
3FF0
3FF0
3FE0
1FE0
0FC0
0F80
0F80
0F80
0F80
0F80
0F80
0F80
0F80
0F80
0F80
0F80
0F80
0F80
0F80
0F80
0F80
0F80
0F80
0F80
0F80
0F80
0F80
0F80
07C0
0FE0
1FF0
1FF0
1FE0
ENDCHAR
STARTCHAR 00CF
ENCODING 207
SWIDTH 280 0
DWIDTH 14 0
BBX 13 45 0 0
BITMAP
7038
7878
F878
F878
7078
7030
0000
0000
0000
0000
0000
0FE0
3FF0
3FF0
3FE0
1FE0
0FC0
0F80
0F80
0F80
0F80
0F80
0F80
0F80
0F80
0F80
0F80
0F80
0F80
0F80
0F80
0F80
0F80
0F80
0F80
0F80
0F80
0F80
0F80
0F80
07C0
0FE0
1FF0
1FF0
1FE0
ENDCHAR
STARTCHAR 00D0
ENCODING 208
SWIDTH 680 0
DWIDTH 34 0
BBX 30 34 2 0
BITMAP
0FFF0000
3FFFF000
3FFFFC00
3FFFFF00
1F807F80
0F000FC0
0F0007E0
0F0001F0
1F0001F0
1F0000F8
1F000078
1F00007C
1F00007C
1F00003C
1F00003C
7FFFC03C
FFFF803C
FFFF803C
FFFF003C
1F00003C
1F00007C
1F00007C
1F000078
1F0000F8
1F0000F8
1F0001F0
1F0001F0
1F0003E0
1F800FC0
1FE03F80
1FFFFF00
1FFFFE00
07FFF800
007FC000
ENDCHAR
STARTCHAR 00D1
ENCODING 209
SWIDTH 640 0
DWIDTH 32 0
BBX 29 46 1 0
BITMAP
00100000
00FE0200
01FF0700
03FFFE00
0387FE00
0103FC00
0000F000
00000000
00000000
00000000
00000000
00000000
18000070
7C0000F8
7E0000F8
7F0000F8
7F8000F8
7F8000F8
7FC000F8
7FC000F8
7BE000F8
79F000F8
78F000F8
78F800F8
787C00F8
787C00F8
783E00F8
781E00F8
781F00F8
780F80F8
7807C0F8
7807C0F8
7803E0F8
7801F0F8
7801F8F8
7800F8F8
78007CF8
78007EF8
78003FF8
78001FF8
78001FF8
7C000FF8
780007F8
F80003F0
F00001F0
70000000
ENDCHAR
STARTCHAR 00D2
ENCODING 210
SWIDTH 660 0
DWIDTH 33 0
BBX 30 47 2 1
BITMAP
001C0000
003E0000
003F0000
001F8000
000F8000
0007C000
0003C000
0001E000
00000000
00000000
00000000
00000000
00000000
000FE000
007FFC00
00FFFF00
03FFFF80
07F01FC0
0FC007E0
0F8003F0
1F0001F0
3E0001F8
3E0000F8
7C0000F8
7C0000F8
7C00007C
F800007C
F800007C
F800007C
F800007C
F800007C
F800007C
F800007C
F8000078
F80000F8
7C0000F8
7C0000F8
7E0001F0
3E0001F0
3F0003E0
1F8007C0
1FC00FC0
0FF03F80
07FFFF00
03FFFC00
00FFF800
001FC000
ENDCHAR
STARTCHAR 00D3
ENCODING 211
SWIDTH 660 0
DWIDTH 33 0
BBX 30 47 2 1
BITMAP
0001C000
0003E000
0007E000
0007C000
000FC000
001F0000
001E0000
001C0000
00000000
00000000
00000000
00000000
00000000
000FE000
007FFC00
00FFFF00
03FFFF80
07F01FC0
0FC007E0
0F8003F0
1F0001F0
3E0001F8
3E0000F8
7C0000F8
7C0000F8
7C00007C
F800007C
F800007C
F800007C
F800007C
F800007C
F800007C
F800007C
F8000078
F80000F8
7C0000F8
7C0000F8
7E0001F0
3E0001F0
3F0003E0
1F8007C0
1FC00FC0
0FF03F80
07FFFF00
03FFFC00
00FFF800
001FC000
ENDCHAR
STARTCHAR 00D4
ENCODING 212
SWIDTH 660 0
DWIDTH 33 0
BBX 30 47 2 1
BITMAP
00070000
000F8000
001FC000
001FE000
003CE000
0078F000
00F07800
00F03800
00600000
00000000
00000000
00000000
00000000
000FE000
007FFC00
00FFFF00
03FFFF80
07F01FC0
0FC007E0
0F8003F0
1F0001F0
3E0001F8
3E0000F8
7C0000F8
7C0000F8
7C00007C
F800007C
F800007C
F800007C
F800007C
F800007C
F800007C
F800007C
F8000078
F80000F8
7C0000F8
7C0000F8
7E0001F0
3E0001F0
3F0003E0
1F8007C0
1FC00FC0
0FF03F80
07FFFF00
03FFFC00
00FFF800
001FC000
ENDCHAR
STARTCHAR 00D5
ENCODING 213
SWIDTH 660 0
DWIDTH 33 0
BBX 30 46 2 0
BITMAP
00100000
00FE0200
01FF0600
03FFFE00
0387FE00
0103FC00
0000F000
00000000
00000000
00000000
00000000
00000000
000FE000
007FFC00
00FFFF00
03FFFF80
07F01FC0
0FC007E0
0F8003F0
1F0001F0
3E0001F8
3E0000F8
7C0000F8
7C0000F8
7C00007C
F800007C
F800007C
F800007C
F800007C
F800007C
F800007C
F800007C
F8000078
F80000F8
7C0000F8
7C0000F8
7E0001F0
3E0001F0
3F0003E0
1F8007C0
1FC00FC0
0FF03F80
07FFFF00
03FFFC00
00FFF800
001FC000
ENDCHAR
STARTCHAR 00D6
ENCODING 214
SWIDTH 660 0
DWIDTH 33 0
BBX 30 45 2 1
BITMAP
00703000
00F07800
00F87800
00F87800
00F07800
00607000
00000000
00000000
00000000
00000000
00000000
000FE000
007FFC00
00FFFF00
03FFFF80
07F01FC0
0FC007E0
0F8003F0
1F0001F0
3E0001F8
3E0000F8
7C0000F8
7C0000F8
7C00007C
F800007C
F800007C
F800007C
F800007C
F800007C
F800007C
F800007C
F8000078
F80000F8
7C0000F8
7C0000F8
7E0001F0
3E0001F0
3F0003E0
1F8007C0
1FC00FC0
0FF03F80
07FFFF00
03FFFC00
00FFF800
001FC000
ENDCHAR
STARTCHAR 00D7
ENCODING 215
SWIDTH 440 0
DWIDTH 22 0
BBX 19 19 2 5
BITMAP
6000C0
F003C0
F807C0
7C0FC0
7E0F80
3F1F00
0FBE00
07FC00
03F800
01F000
03F800
07FC00
0FBE00
1F1F00
3E0F80
7C07C0
F807E0
F003E0
6001C0
ENDCHAR
STARTCHAR 00D8
ENCODING 216
SWIDTH 660 0
DWIDTH 33 0
BBX 30 43 2 -3
BITMAP
000003E0
000007C0
00000FC0
000FEF80
007FFF80
00FFFF00
01FFFF80
07FFFFC0
07F01FE0
0FC03FF0
1F803FF0
1F0039F8
3E0078F8
3E0070F8
7C00F0F8
7C00F07C
7C00E07C
F801E07C
F801C07C
F803C07C
F803C07C
F803807C
F807807C
F807007C
F80F007C
F80E0078
FC0E00F8
7C1E00F8
7C1C00F0
7E3C01F0
3E3801E0
3F3803E0
1FF807C0
0FF00FC0
0FF03F80
07FFFF00
03FFFC00
03FFF800
03DFC000
07C00000
07800000
0F800000
07000000
ENDCHAR
STARTCHAR 00D9
ENCODING 217
SWIDTH 640 0
DWIDTH 32 0
BBX 28 47 2 1
BITMAP
00380000
007C0000
007E0000
003F0000
001F0000
000F8000
0007C000
0001C000
00000000
00000000
00000000
00000000
380001F0
7C0001F0
FC0001F0
FC0001F0
F80001F0
F80001F0
F80001F0
F80001F0
F80001F0
F80001F0
F80001F0
F80001F0
F80001F0
F80003F0
F80003F0
F80003F0
F80003E0
F80003E0
F80003E0
F80003E0
F80003E0
F80003E0
F80003E0
F80007E0
FC0007C0
7C0007C0
7C000FC0
7E000F80
3F001F80
3F803F00
1FE07F00
0FFFFE00
07FFFC00
01FFF000
003FC000
ENDCHAR
STARTCHAR 00DA
ENCODING 218
SWIDTH 640 0
DWIDTH 32 0
BBX 28 47 2 1
BITMAP
0003C000
0007C000
000FC000
000FC000
001F8000
003F0000
003C0000
00380000
00000000
00000000
00000000
00000000
380001F0
7C0001F0
FC0001F0
FC0001F0
F80001F0
F80001F0
F80001F0
F80001F0
F80001F0
F80001F0
F80001F0
F80001F0
F80001F0
F80003F0
F80003F0
F80003F0
F80003E0
F80003E0
F80003E0
F80003E0
F80003E0
F80003E0
F80003E0
F80007E0
FC0007C0
7C0007C0
7C000FC0
7E000F80
3F001F80
3F803F00
1FE07F00
0FFFFE00
07FFFC00
01FFF000
003FC000
ENDCHAR
STARTCHAR 00DB
ENCODING 219
SWIDTH 640 0
DWIDTH 32 0
BBX 28 47 2 1
BITMAP
00060000
001F0000
001F8000
003FC000
0079C000
00F1E000
01F0F000
01E07000
00C00000
00000000
00000000
00000000
380001F0
7C0001F0
FC0001F0
FC0001F0
F80001F0
F80001F0
F80001F0
F80001F0
F80001F0
F80001F0
F80001F0
F80001F0
F80001F0
F80003F0
F80003F0
F80003F0
F80003E0
F80003E0
F80003E0
F80003E0
F80003E0
F80003E0
F80003E0
F80007E0
FC0007C0
7C0007C0
7C000FC0
7E000F80
3F001F80
3F803F00
1FE07F00
0FFFFE00
07FFFC00
01FFF000
003FC000
ENDCHAR
STARTCHAR 00DC
ENCODING 220
SWIDTH 640 0
DWIDTH 32 0
BBX 28 45 2 1
BITMAP
00E06000
00F0F000
01F0F000
01F0F000
01E0F000
00E06000
00000000
00000000
00000000
00000000
380001F0
7C0001F0
FC0001F0
FC0001F0
F80001F0
F80001F0
F80001F0
F80001F0
F80001F0
F80001F0
F80001F0
F80001F0
F80001F0
F80003F0
F80003F0
F80003F0
F80003E0
F80003E0
F80003E0
F80003E0
F80003E0
F80003E0
F80003E0
F80007E0
FC0007C0
7C0007C0
7C000FC0
7E000F80
3F001F80
3F803F00
1FE07F00
0FFFFE00
07FFFC00
01FFF000
003FC000
ENDCHAR
STARTCHAR 00DD
ENCODING 221
SWIDTH 620 0
DWIDTH 31 0
BBX 28 48 2 -1
BITMAP
00038000
0007C000
000FC000
000F8000
001F8000
003E0000
003C0000
00380000
00000000
00000000
00000000
000000E0
000001E0
700001F0
F00003E0
F80003E0
FC0007C0
7C0007C0
7E000F80
3E000F80
3F001F00
1F801E00
0F803E00
0FC07C00
07E07C00
03E0F800
03F0F800
01F9F000
00FBE000
007FE000
003FC000
001FC000
001F8000
000F8000
000F8000
000F8000
000F8000
000F8000
001F8000
001F8000
000F8000
000F8000
000F8000
001F8000
001F8000
001F8000
001F0000
000E0000
ENDCHAR
STARTCHAR 00DE
ENCODING 222
SWIDTH 540 0
DWIDTH 27 0
BBX 24 34 2 0
BITMAP
1C0000
7C0000
7C0000
7C0000
7C0000
7C0000
7FFF80
7FFFF0
FF0FF8
FC01FC
FC007E
F8007E
F8007F
F8003F
F8003F
F8003F
F8003F
F8003F
F8007F
F8007E
F800FE
F803FC
F81FF8
FFFFF0
FFFFC0
FFFF00
FFF800
FC0000
FC0000
FC0000
FC0000
FC0000
780000
700000
ENDCHAR
STARTCHAR 00DF
ENCODING 223
SWIDTH 480 0
DWIDTH 24 0
BBX 21 37 2 -3
BITMAP
03E000
0FF000
1FFC00
3FFC00
3C1E00
781E00
780E00
700E00
F00E00
F01E00
F03C00
F0FC00
F1F800
F3F000
F3C000
F38000
F3C000
F3FC00
E3FF80
E1FFC0
E07FE0
E007F0
E001F8
E000F8
E00078
E00078
E00078
E00078
E30078
E70078
E780F0
F7C1F0
F3FFE0
F3FFC0
F1FF80
E07F00
E00000
ENDCHAR
STARTCHAR 00E0
ENCODING 224
SWIDTH 480 0
DWIDTH 24 0
BBX 20 37 2 0
BITMAP
010000
03C000
07E000
03E000
03F000
01F800
007800
003C00
000C00
000000
000000
03FE00
0FFF80
3FFFC0
3FFFE0
7C03E0
7001E0
2001F0
0000F0
0000F0
07FEF0
1FFFF0
3FFFF0
7FFFF0
7F03F0
FC01F0
F800F0
F000F0
F000F0
F000F0
F001F0
F001F0
7803F0
7C0FF0
3FFEF0
1FF8F0
07E060
ENDCHAR
STARTCHAR 00E1
ENCODING 225
SWIDTH 480 0
DWIDTH 24 0
BBX 20 37 2 0
BITMAP
001800
003C00
007C00
00FC00
01F800
01F000
03E000
03C000
030000
000000
000000
03FE00
0FFF80
3FFFC0
3FFFE0
7C03E0
7001E0
2001F0
0000F0
0000F0
07FEF0
1FFFF0
3FFFF0
7FFFF0
7F03F0
FC01F0
F800F0
F000F0
F000F0
F000F0
F001F0
F001F0
7803F0
7C0FF0
3FFEF0
1FF8F0
07E060
ENDCHAR
STARTCHAR 00E2
ENCODING 226
SWIDTH 480 0
DWIDTH 24 0
BBX 20 37 2 0
BITMAP
006000
00F000
01F800
03FC00
079E00
0F1E00
0F0F00
1E0700
0C0000
000000
000000
03FE00
0FFF80
3FFFC0
3FFFE0
7C03E0
7001E0
2001F0
0000F0
0000F0
07FEF0
1FFFF0
3FFFF0
7FFFF0
7F03F0
FC01F0
F800F0
F000F0
F000F0
F000F0
F001F0
F001F0
7803F0
7C0FF0
3FFEF0
1FF8F0
07E060
ENDCHAR
STARTCHAR 00E3
ENCODING 227
SWIDTH 480 0
DWIDTH 24 0
BBX 20 35 2 0
BITMAP
0F8000
1FC0C0
3FF1E0
79FFC0
607F80
003F00
000000
000000
000000
03FE00
0FFF80
3FFFC0
3FFFE0
7C03E0
7001E0
2001F0
0000F0
0000F0
07FEF0
1FFFF0
3FFFF0
7FFFF0
7F03F0
FC01F0
F800F0
F000F0
F000F0
F000F0
F001F0
F001F0
7803F0
7C0FF0
3FFEF0
1FF8F0
07E060
ENDCHAR
STARTCHAR 00E4
ENCODING 228
SWIDTH 480 0
DWIDTH 24 0
BBX 20 34 2 0
BITMAP
0E0700
0F0F00
1F0F00
1F0F00
0E0F00
0E0600
000000
000000
03FE00
0FFF80
3FFFC0
3FFFE0
7C03E0
7001E0
2001F0
0000F0
0000F0
07FEF0
1FFFF0
3FFFF0
7FFFF0
7F03F0
FC01F0
F800F0
F000F0
F000F0
F000F0
F001F0
F001F0
7803F0
7C0FF0
3FFEF0
1FF8F0
07E060
ENDCHAR
STARTCHAR 00E5
ENCODING 229
SWIDTH 480 0
DWIDTH 24 0
BBX 20 38 2 -1
BITMAP
01F800
03FC00
07FE00
0FFF00
0F0F00
0E0700
1E0700
1E0700
0F1E00
0FFE00
07FC00
01F000
03FE00
0FFF80
3FFFC0
3FFFE0
7C03E0
7001E0
2001F0
0000F0
0000F0
07FEF0
1FFFF0
3FFFF0
7FFFF0
7F03F0
FC01F0
F800F0
F000F0
F000F0
F000F0
F001F0
F001F0
7803F0
7C0FF0
3FFEF0
1FF8F0
07E060
ENDCHAR
STARTCHAR 00E6
ENCODING 230
SWIDTH 820 0
DWIDTH 41 0
BBX 38 24 2 0
BITMAP
07FF00FE00
1FFF83FF80
3FFFCFFFC0
7C03FFFFE0
7001FF07E0
2001FE03F0
0000FC01F0
0000F801F0
07FEF001E0
1FFFF003E0
3FFFF007C0
7F03F01F80
7C01FFFE00
F800FFE000
F000F80000
F000F80000
F000F8001C
F001FC003C
F001FE007C
F803FF81F8
7C0FBFFFF0
3FFF1FFFE0
1FFE07FF80
07F001FE00
ENDCHAR
STARTCHAR 00E7
ENCODING 231
SWIDTH 460 0
DWIDTH 23 0
BBX 20 37 2 -13
BITMAP
00FC00
03FF00
07FF80
0FFFC0
1F0FC0
3E03C0
3C01C0
7C0000
780000
F80000
F00000
F00000
F00000
F00000
F00000
F00000
F80000
F80000
780000
7C0070
7E01F0
3F83E0
1FFFE0
0FFFC0
07FF00
01FC00
00F800
003E00
000F80
0007C0
0001E0
0401E0
0C01E0
0E03E0
0FFFC0
07FF80
01FE00
ENDCHAR
STARTCHAR 00E8
ENCODING 232
SWIDTH 520 0
DWIDTH 26 0
BBX 22 37 2 1
BITMAP
00C000
01E000
03F000
01F000
01F800
00FC00
003C00
001E00
000600
000000
000000
000000
000000
00FE00
03FF80
0FFFC0
1FFFE0
3F07E0
3E03F0
7C01F0
7801F0
F801E0
F803E0
F007C0
F01F80
FFFE00
FFE000
F80000
F80000
F8001C
7C003C
7E007C
3F81F8
3FFFF0
1FFFE0
07FF80
01FE00
ENDCHAR
STARTCHAR 00E9
ENCODING 233
SWIDTH 520 0
DWIDTH 26 0
BBX 22 37 2 1
BITMAP
000C00
001E00
003E00
007E00
00FC00
00F800
01F000
01E000
018000
000000
000000
000000
000000
00FE00
03FF80
0FFFC0
1FFFE0
3F07E0
3E03F0
7C01F0
7801F0
F801E0
F803E0
F007C0
F01F80
FFFE00
FFE000
F80000
F80000
F8001C
7C003C
7E007C
3F81F8
3FFFF0
1FFFE0
07FF80
01FE00
ENDCHAR
STARTCHAR 00EA
ENCODING 234
SWIDTH 520 0
DWIDTH 26 0
BBX 22 37 2 1
BITMAP
003000
007800
00FC00
01FE00
03CF00
078700
078780
0F0380
060000
000000
000000
000000
000000
00FE00
03FF80
0FFFC0
1FFFE0
3F07E0
3E03F0
7C01F0
7801F0
F801E0
F803E0
F007C0
F01F80
FFFE00
FFE000
F80000
F80000
F8001C
7C003C
7E007C
3F81F8
3FFFF0
1FFFE0
07FF80
01FE00
ENDCHAR
STARTCHAR 00EB
ENCODING 235
SWIDTH 520 0
DWIDTH 26 0
BBX 22 34 2 1
BITMAP
070380
078780
0F8780
0F8780
070780
070300
000000
000000
000000
000000
00FE00
03FF80
0FFFC0
1FFFE0
3F07E0
3E03F0
7C01F0
7801F0
F801E0
F803E0
F007C0
F01F80
FFFE00
FFE000
F80000
F80000
F8001C
7C003C
7E007C
3F81F8
3FFFF0
1FFFE0
07FF80
01FE00
ENDCHAR
STARTCHAR 00EC
ENCODING 236
SWIDTH 180 0
DWIDTH 9 0
BBX 9 37 0 1
BITMAP
2000
7800
FC00
7C00
7E00
3F00
1F00
0780
0180
0000
0000
0000
0E00
1E00
1E00
3E00
3E00
3E00
3E00
3E00
3E00
3E00
3E00
3E00
3E00
3E00
3E00
3E00
3E00
3E00
3E00
3E00
3E00
3E00
3E00
3E00
1C00
ENDCHAR
STARTCHAR 00ED
ENCODING 237
SWIDTH 180 0
DWIDTH 9 0
BBX 9 37 0 1
BITMAP
0200
0F00
0F80
1F00
3F00
7E00
7C00
F000
6000
0000
0000
0000
0C00
3E00
3E00
3E00
3E00
3E00
3E00
3E00
3E00
3E00
3E00
3E00
3E00
3E00
3E00
3E00
3E00
3E00
3E00
3E00
3E00
3E00
3E00
3C00
1800
ENDCHAR
STARTCHAR 00EE
ENCODING 238
SWIDTH 180 0
DWIDTH 9 0
BBX 13 37 -2 0
BITMAP
0300
0780
0F80
1FC0
3DE0
7CF0
F870
F078
E038
0000
0000
0000
0300
0780
0F80
0F80
0F80
0F80
0F80
0F80
0F80
0F80
0F80
0F80
0F80
0F80
0F80
0F80
0F80
0F80
0F80
0F80
0F80
0F80
0F80
0F80
0600
ENDCHAR
STARTCHAR 00EF
ENCODING 239
SWIDTH 180 0
DWIDTH 9 0
BBX 13 34 -2 1
BITMAP
7030
F078
F078
F078
F078
6070
0000
0000
0000
0300
0780
0F80
0F80
0F80
0F80
0F80
0F80
0F80
0F80
0F80
0F80
0F80
0F80
0F80
0F80
0F80
0F80
0F80
0F80
0F80
0F80
0F80
0F80
0600
ENDCHAR
STARTCHAR 00F0
ENCODING 240
SWIDTH 520 0
DWIDTH 26 0
BBX 23 35 2 0
BITMAP
008000
01F000
03FC00
01FE00
00FF00
003F9E
000FFC
007FFC
03FFF8
07FFF0
07F8F0
0780F0
0000F8
000078
00FE78
07FFF8
0FFFFC
1FFFFC
3F03FC
7C01FC
7800FC
F0007C
F0007C
F0007C
F00078
F00078
F00078
F00078
F800F0
7C01F0
7E03E0
3FFFE0
1FFFC0
0FFF00
03FC00
ENDCHAR
STARTCHAR 00F1
ENCODING 241
SWIDTH 500 0
DWIDTH 25 0
BBX 21 35 2 0
BITMAP
07C000
1FE060
3FF0E0
3CFFE0
307FC0
001F80
000000
000000
000000
000000
000000
783F80
F87FC0
F9FFE0
FF83F0
FF01F0
FF00F8
FE00F8
FE00F8
FC00F8
FC00F8
FC00F8
F800F8
F800F8
F800F8
F800F8
F800F8
F800F8
F800F8
F800F8
F800F8
F800F8
F800F8
F80078
700078
ENDCHAR
STARTCHAR 00F2
ENCODING 242
SWIDTH 500 0
DWIDTH 25 0
BBX 21 37 2 1
BITMAP
018000
03C000
03E000
03F000
01F800
00F800
007C00
003C00
000C00
000000
000000
000000
000000
00FC00
03FF00
0FFFC0
1FFFC0
3F07E0
3E01F0
7C01F0
7800F8
7800F8
F00078
F00078
F00078
F00078
F00078
F00078
F800F0
7800F0
7C01F0
7C03E0
3F07C0
1FFFC0
1FFF80
07FE00
01F800
ENDCHAR
STARTCHAR 00F3
ENCODING 243
SWIDTH 500 0
DWIDTH 25 0
BBX 21 37 2 1
BITMAP
000C00
003E00
003E00
007C00
00FC00
01F800
01F000
03C000
018000
000000
000000
000000
000000
00FC00
03FF00
0FFFC0
1FFFC0
3F07E0
3E01F0
7C01F0
7800F8
7800F8
F00078
F00078
F00078
F00078
F00078
F00078
F800F0
7800F0
7C01F0
7C03E0
3F07C0
1FFFC0
1FFF80
07FE00
01F800
ENDCHAR
STARTCHAR 00F4
ENCODING 244
SWIDTH 500 0
DWIDTH 25 0
BBX 21 37 2 1
BITMAP
007000
00F800
01FC00
03FC00
03DE00
078F00
0F0780
0E0380
040000
000000
000000
000000
000000
00FC00
03FF00
0FFFC0
1FFFC0
3F07E0
3E01F0
7C01F0
7800F8
7800F8
F00078
F00078
F00078
F00078
F00078
F00078
F800F0
7800F0
7C01F0
7C03E0
3F07C0
1FFFC0
1FFF80
07FE00
01F800
ENDCHAR
STARTCHAR 00F5
ENCODING 245
SWIDTH 500 0
DWIDTH 25 0
BBX 21 35 2 1
BITMAP
07C000
1FE060
3FF0E0
3CFFE0
307FC0
001F80
000000
000000
000000
000000
000000
00FC00
03FF00
0FFFC0
1FFFC0
3F07E0
3E01F0
7C01F0
7800F8
7800F8
F00078
F00078
F00078
F00078
F00078
F00078
F800F0
7800F0
7C01F0
7C03E0
3F07C0
1FFFC0
1FFF80
07FE00
01F800
ENDCHAR
STARTCHAR 00F6
ENCODING 246
SWIDTH 500 0
DWIDTH 25 0
BBX 21 34 2 1
BITMAP
070300
0F0780
0F0780
0F0780
0F0780
060700
000000
000000
000000
000000
00FC00
03FF00
0FFFC0
1FFFC0
3F07E0
3E01F0
7C01F0
7800F8
7800F8
F00078
F00078
F00078
F00078
F00078
F00078
F800F0
7800F0
7C01F0
7C03E0
3F07C0
1FFFC0
1FFF80
07FE00
01F800
ENDCHAR
STARTCHAR 00F7
ENCODING 247
SWIDTH 580 0
DWIDTH 29 0
BBX 25 22 2 5
BITMAP
003C0000
007E0000
007E0000
007E0000
007E0000
003E0000
001C0000
00000000
00000000
7FFFFF80
FFFFFF80
FFFFFF80
FFFFFF00
00000000
00000000
003C0000
007E0000
007E0000
007E0000
007E0000
007E0000
003C0000
ENDCHAR
STARTCHAR 00F8
ENCODING 248
SWIDTH 500 0
DWIDTH 25 0
BBX 21 31 2 -3
BITMAP
000060
0001E0
0003E0
0003C0
00FFC0
03FF80
0FFFC0
1F0FE0
3E1FE0
3C1FF0
781EF0
783CF8
703C78
F07C78
F07878
F07878
F0F078
F0F078
F1F078
F9E0F8
F9E0F0
7BC0F0
7FC1E0
7F83E0
3FFFC0
1FFF80
0FFE00
0FF800
1E0000
1C0000
1C0000
ENDCHAR
STARTCHAR 00F9
ENCODING 249
SWIDTH 480 0
DWIDTH 24 0
BBX 20 37 2 0
BITMAP
018000
03C000
07E000
03F000
03F000
01F800
007800
003C00
000C00
000000
000000
000000
000000
700070
F800F0
F801F0
F801F0
F801F0
F801F0
F801F0
F801F0
F801F0
F801F0
F801F0
F801F0
F801F0
F801F0
F801F0
F801F0
F803F0
F803F0
FC07F0
7E0FF0
7FFFF0
3FFFF0
1FFEF0
07F8F0
ENDCHAR
STARTCHAR 00FA
ENCODING 250
SWIDTH 480 0
DWIDTH 24 0
BBX 20 37 2 0
BITMAP
001800
003C00
007C00
00FC00
01F800
01F000
03E000
03C000
030000
000000
000000
000000
000000
700070
F800F0
F801F0
F801F0
F801F0
F801F0
F801F0
F801F0
F801F0
F801F0
F801F0
F801F0
F801F0
F801F0
F801F0
F801F0
F803F0
F803F0
FC07F0
7E0FF0
7FFFF0
3FFFF0
1FFEF0
07F8F0
ENDCHAR
STARTCHAR 00FB
ENCODING 251
SWIDTH 480 0
DWIDTH 24 0
BBX 20 37 2 0
BITMAP
006000
00F000
01F800
03FC00
079E00
0F8E00
0F0F00
1E0700
0C0000
000000
000000
000000
000000
700070
F800F0
F801F0
F801F0
F801F0
F801F0
F801F0
F801F0
F801F0
F801F0
F801F0
F801F0
F801F0
F801F0
F801F0
F801F0
F803F0
F803F0
FC07F0
7E0FF0
7FFFF0
3FFFF0
1FFEF0
07F8F0
ENDCHAR
STARTCHAR 00FC
ENCODING 252
SWIDTH 480 0
DWIDTH 24 0
BBX 20 34 2 0
BITMAP
0E0700
0F0F00
1F0F00
1F0F00
0E0F00
0E0600
000000
000000
000000
000000
700070
F800F0
F801F0
F801F0
F801F0
F801F0
F801F0
F801F0
F801F0
F801F0
F801F0
F801F0
F801F0
F801F0
F801F0
F801F0
F803F0
F803F0
FC07F0
7E0FF0
7FFFF0
3FFFF0
1FFEF0
07F8F0
ENDCHAR
STARTCHAR 00FD
ENCODING 253
SWIDTH 520 0
DWIDTH 26 0
BBX 23 51 2 -13
BITMAP
000C00
001E00
003E00
007E00
007C00
00F800
01F000
01E000
018000
000000
000000
000000
000000
60001C
F0003E
F8007C
F8007C
FC00F8
7C00F8
7C00F8
3E01F0
3E01F0
1F01E0
1F03E0
1F03E0
0F83C0
0F87C0
07C7C0
07CF80
03CF80
03EF00
01FF00
01FF00
00FE00
00FE00
007C00
007C00
007C00
00F800
00F800
01F000
01F000
01F000
03E000
03E000
03E000
03C000
03C000
03C000
03C000
010000
ENDCHAR
STARTCHAR 00FE
ENCODING 254
SWIDTH 500 0
DWIDTH 25 0
BBX 22 45 2 -12
BITMAP
780000
F80000
F80000
F80000
F80000
F80000
F80000
F80000
F87F00
F9FFC0
FBFFE0
FFFFE0
FF03F0
FE01F8
FC00F8
FC00F8
FC007C
F8007C
F8007C
F8007C
F8007C
F8007C
F8007C
F8007C
F80078
FC00F8
FC00F8
FE01F0
FF87E0
FFFFE0
FFFF80
FBFF00
F8FC00
F80000
F80000
F80000
F80000
F80000
F80000
F80000
F80000
F80000
F80000
F80000
700000
ENDCHAR
STARTCHAR 00FF
ENCODING 255
SWIDTH 520 0
DWIDTH 26 0
BBX 23 48 2 -13
BITMAP
030380
078780
0787C0
078780
078780
070300
000000
000000
000000
000000
60001C
F0003E
F8007C
F8007C
FC00F8
7C00F8
7C00F8
3E01F0
3E01F0
1F01E0
1F03E0
1F03E0
0F83C0
0F87C0
07C7C0
07CF80
03CF80
03EF00
01FF00
01FF00
00FE00
00FE00
007C00
007C00
007C00
00F800
00F800
01F000
01F000
01F000
03E000
03E000
03E000
03C000
03C000
03C000
03C000
010000
ENDCHAR
STARTCHAR 0152
ENCODING 338
SWIDTH 920 0
DWIDTH 46 0
BBX 43 34 2 0
BITMAP
0003FFFFFF00
003FFFFFFF80
00FF0FFFFF80
01E00FFFFF00
03C007E00000
078007800000
0F0007800000
1E0007800000
3E0007800000
3C0007800000
7C0007800000
7C0007800000
780007800000
780007800000
F80007DFFF00
F8000FFFFF00
F8000FFFFE00
F80007FFF000
F80007C00000
F80007800000
F80007800000
FC0007800000
FC0007800000
7C0007800000
7E0007800000
7E0007800000
3F0007800000
1F8007800000
1FC007C00000
0FF007E00FC0
07FFFFFFFFE0
03FFFFFFFFC0
00FFFFFFFF80
001FFFFFFC00
ENDCHAR
STARTCHAR 0153
ENCODING 339
SWIDTH 860 0
DWIDTH 43 0
BBX 40 24 2 0
BITMAP
00FE007F00
03FF81FFC0
0FFFC3C3F0
1FFFE701F0
1F07FE00F8
3E03FE00F8
7C01FC00F8
7800FC00F8
7800FC01F8
F0007807F0
F0007FFFF0
F0007FFFC0
F0007FFF00
F0007FF800
F0007C0000
F800FC0000
7800FE0007
7C01FE000F
7C03FF003E
3F07FFC0FE
1FFFCFFFFC
0FFF87FFF8
07FF03FFE0
01FC007F00
ENDCHAR
STARTCHAR 0160
ENCODING 352
SWIDTH 580 0
DWIDTH 29 0
BBX 26 48 2 -1
BITMAP
0380E000
03C0E000
01E1C000
01F3C000
00FF8000
007F0000
003E0000
001E0000
00000000
00000000
00000000
00000000
00000000
003FC000
01FFF000
07FFF800
0FFFFC00
3F80FC00
3E003C00
7C003800
78003000
F8000000
F8000000
F8000000
FC000000
7E000000
7FC00000
3FFC0000
1FFFE000
07FFF800
01FFFE00
001FFF00
0000FF80
00003F80
00001FC0
00000FC0
000007C0
000007C0
00000780
60000780
F0000F80
F0001F00
F8007F00
FF01FE00
7FFFFC00
3FFFF800
1FFFE000
03FF0000
ENDCHAR
STARTCHAR 0161
ENCODING 353
SWIDTH 460 0
DWIDTH 23 0
BBX 19 37 2 0
BITMAP
0C0000
1E0700
1F0F00
0F1E00
079C00
03FC00
01F800
00F000
006000
000000
000000
007F00
03FF80
0FFFC0
1FFFC0
3F03C0
7C03C0
780180
780000
780000
7E0000
7FC000
3FF800
1FFE00
07FF80
00FFC0
001FE0
0007E0
0003E0
0001E0
6003E0
F003E0
FC0FC0
FFFF80
7FFF00
3FFE00
07F000
ENDCHAR
STARTCHAR 0178
ENCODING 376
SWIDTH 620 0
DWIDTH 31 0
BBX 28 46 2 -1
BITMAP
00E06000
01E0F000
01F0F000
01E0F000
01E0F000
00C0E000
00000000
00000000
00000000
000000E0
000001E0
700001F0
F00003E0
F80003E0
FC0007C0
7C0007C0
7E000F80
3E000F80
3F001F00
1F801E00
0F803E00
0FC07C00
07E07C00
03E0F800
03F0F800
01F9F000
00FBE000
007FE000
003FC000
001FC000
001F8000
000F8000
000F8000
000F8000
000F8000
000F8000
001F8000
001F8000
000F8000
000F8000
000F8000
001F8000
001F8000
001F8000
001F0000
000E0000
ENDCHAR
STARTCHAR 0192
ENCODING 402
SWIDTH 640 0
DWIDTH 32 0
BBX 29 46 2 -10
BITMAP
000007E0
00001FF8
00003FF8
00007FF8
00007C38
0000F830
0000F000
0001F000
0001F000
0001E000
0003E000
0003E000
003FFF80
007FFF80
00FFFF80
007FFE00
0007E000
0007C000
0007C000
00078000
000F8000
000F8000
000F8000
000F8000
000F0000
001F0000
001F0000
001F0000
001F0000
001F0000
001E0000
003E0000
003E0000
003E0000
003E0000
003C0000
007C0000
007C0000
007C0000
00F80000
60F80000
E1F00000
F7F00000
FFE00000
FFC00000
7F000000
ENDCHAR
STARTCHAR 02C6
ENCODING 710
SWIDTH 320 0
DWIDTH 16 0
BBX 13 9 2 29
BITMAP
0700
0F80
1F80
3FC0
7DE0
78F0
F070
E078
4000
ENDCHAR
STARTCHAR 02DC
ENCODING 732
SWIDTH 400 0
DWIDTH 20 0
BBX 17 6 2 30
BITMAP
3F0000
7F8180
FFC780
E3FF00
C1FE00
007C00
ENDCHAR
STARTCHAR 2013
ENCODING 8211
SWIDTH 600 0
DWIDTH 30 0
BBX 26 4 2 12
BITMAP
3FFFFFC0
FFFFFFC0
FFFFFF80
FFFFFF00
ENDCHAR
STARTCHAR 2014
ENCODING 8212
SWIDTH 960 0
DWIDTH 48 0
BBX 45 4 2 11
BITMAP
7FFFFFFFFFF8
FFFFFFFFFFF8
FFFFFFFFFFF0
FFFFFFFFFFE0
ENDCHAR
STARTCHAR 2018
ENCODING 8216
SWIDTH 200 0
DWIDTH 10 0
BBX 7 13 2 23
BITMAP
0C
3E
3C
3C
7C
78
F8
F8
FC
FC
FC
FC
38
ENDCHAR
STARTCHAR 2019
ENCODING 8217
SWIDTH 200 0
DWIDTH 10 0
BBX 7 13 2 23
BITMAP
78
FC
FC
FE
FE
7C
7C
7C
78
F8
F0
F0
E0
ENDCHAR
STARTCHAR 201A
ENCODING 8218
SWIDTH 200 0
DWIDTH 10 0
BBX 7 13 2 -7
BITMAP
78
FC
FC
FE
FE
7C
7C
7C
78
F8
F0
F0
E0
ENDCHAR
STARTCHAR 201C
ENCODING 8220
SWIDTH 400 0
DWIDTH 20 0
BBX 16 13 2 24
BITMAP
1E07
3E0F
3C1F
7C1F
7C1E
783E
F83E
FC3E
FC7F
FC7F
FC7F
7C3F
101E
ENDCHAR
STARTCHAR 201D
ENCODING 8221
SWIDTH 400 0
DWIDTH 20 0
BBX 16 13 2 24
BITMAP
781E
FC3F
FC3F
FE3F
FE3F
7C1F
7C1E
7C3E
783E
F83C
F07C
F078
E020
ENDCHAR
STARTCHAR 201E
ENCODING 8222
SWIDTH 400 0
DWIDTH 20 0
BBX 17 13 2 -6
BITMAP
781E00
FC3F00
FC3F80
FE3F80
FE1F00
7C1F00
7C1F00
7C1E00
783E00
F83E00
F03C00
F03C00
E00000
ENDCHAR
STARTCHAR 2020
ENCODING 8224
SWIDTH 420 0
DWIDTH 21 0
BBX 17 38 2 -6
BITMAP
00C000
01E000
01E000
01E000
03E000
03E000
03E000
03E000
7FFF80
FFFF80
FFFF80
FFFF00
03E000
03E000
03E000
03E000
03E000
03E000
03E000
03E000
03E000
03E000
03E000
03E000
03E000
03E000
03E000
03E000
03E000
03E000
03E000
03E000
03E000
03E000
03E000
03E000
01C000
018000
ENDCHAR
STARTCHAR 2021
ENCODING 8225
SWIDTH 420 0
DWIDTH 21 0
BBX 17 38 2 -6
BITMAP
00C000
01E000
01E000
01E000
03E000
03E000
03E000
03E000
7FFF80
FFFF80
FFFF80
FFFF00
03E000
03E000
03E000
03E000
03E000
03E000
03E000
03E000
03E000
03E000
03E000
03E000
03E000
03E000
03E000
7FFF80
FFFF80
FFFF80
FFFF00
03E000
03E000
03E000
03E000
03E000
01C000
018000
ENDCHAR
STARTCHAR 2022
ENCODING 8226
SWIDTH 340 0
DWIDTH 17 0
BBX 14 13 2 11
BITMAP
0F80
3FE0
7FF0
7FF8
FFF8
FFFC
FFFC
FFFC
FFF8
FFF8
7FF0
3FE0
0780
ENDCHAR
STARTCHAR 2026
ENCODING 8230
SWIDTH 640 0
DWIDTH 32 0
BBX 29 7 2 0
BITMAP
700000E0
F80701F0
FC0F81F8
FC1FC1F8
FC0FC1F8
FC0F81F8
780780F0
ENDCHAR
STARTCHAR 2030
ENCODING 8240
SWIDTH 1120 0
DWIDTH 56 0
BBX 52 34 2 0
BITMAP
03E00070000000
0FF801F0000000
3FFC03E0000000
3C3E03E0000000
781E07C0000000
F80F0780000000
F00F0780000000
F00F0F00000000
F00F0F00000000
F00F1E00000000
F00F1E00000000
781E3C00000000
7C3C7C00000000
3FFC7800000000
1FF0F000000000
07C0F000000000
0001E000000000
0001E07C003E00
0003C1FF00FF80
0003C7FF83FFC0
00078787C3C3E0
00078F03C781E0
000F0F03E781F0
000F1E01EF00F0
001E1E01EF00F0
001E1E01EF00F0
003C1E01EF00F0
003C1E01EF00F0
00781F03CF81E0
00780F03C781E0
00F00F8787C3C0
00F007FF03FF80
01E003FE01FF00
01C000F8007C00
ENDCHAR
STARTCHAR 2039
ENCODING 8249
SWIDTH 280 0
DWIDTH 14 0
BBX 10 18 2 4
BITMAP
01C0
03C0
07C0
0F80
1F00
3E00
7C00
7800
F800
F800
7C00
7E00
3F00
1F80
0F80
07C0
03C0
0180
ENDCHAR
STARTCHAR 203A
ENCODING 8250
SWIDTH 280 0
DWIDTH 14 0
BBX 10 18 2 4
BITMAP
E000
F000
F800
7C00
3E00
1F00
0F80
0780
07C0
07C0
0F80
1F80
3F00
7E00
7C00
F800
F000
6000
ENDCHAR
STARTCHAR 2122
ENCODING 8482
SWIDTH 760 0
DWIDTH 38 0
BBX 35 20 2 15
BITMAP
7FFE380380
FFFE780780
FFFC7C0780
0380FC0FC0
0380FC0FC0
0380FE0FC0
0380EE0FC0
0380EE1DC0
0380EE1DC0
0380EF1DE0
0380E738E0
0380E738E0
0380E7B8E0
0380E3F0E0
0380E3F0E0
0380E3F0E0
0381E1E0E0
0381E1E0E0
0381C0E0E0
0100800040
ENDCHAR
STARTCHAR 2219
ENCODING 8729
SWIDTH 200 0
DWIDTH 10 0
BBX 6 7 2 14
BITMAP
78
F8
FC
FC
FC
FC
78
ENDCHAR
STARTCHAR E000
ENCODING 57344
SWIDTH 640 0
DWIDTH 32 0
BBX 29 35 1 -1
BITMAP
0001F000
000FFF00
001FFFC0
007FFFE0
007FFFF0
00F803F8
01F001F8
01E000F8
03E000F8
03E000F0
03C00070
07C00000
3FFFFE00
7FFFFE00
7FFFFE00
7FFFFC00
07C00000
07C00000
07C00000
07C00000
7FFFF800
FFFFF800
FFFFF000
FFFFF000
07C00000
07E00038
03E00078
03E000F8
03F001F0
01F803F0
01FE0FE0
00FFFFC0
007FFF80
003FFF00
000FFC00
ENDCHAR
STARTCHAR E001
ENCODING 57345
SWIDTH 580 0
DWIDTH 29 0
BBX 25 4 2 14
BITMAP
7FFFFF80
FFFFFF80
FFFFFF80
FFFFFF00
ENDCHAR
STARTCHAR E002
ENCODING 57346
SWIDTH 480 0
DWIDTH 24 0
BBX 21 36 2 -11
BITMAP
380038
7C0078
7C00F8
7C00F8
7C00F8
7C00F8
7C00F8
7C00F8
7C00F8
7C00F8
7800F8
F800F8
F800F8
F800F8
F800F8
FC00F8
FC00F8
FC01F0
FC03F0
FE07F0
FFFFE0
FFFFC0
FFFFE0
FBFFF0
F801F8
F80078
F80038
F80000
F80000
F80000
F80000
F80000
F80000
F80000
F80000
700000
ENDCHAR
STARTCHAR E003
ENCODING 57347
SWIDTH 460 0
DWIDTH 23 0
BBX 0 0 0 0
BITMAP
ENDCHAR
ENDFONT
